<svg width="806" height="406" viewBox="0 0 806 406" fill="none" xmlns="http://www.w3.org/2000/svg">
<rect x="3" y="3" width="50" height="400" fill="#6C9F34"/>
<rect x="53" y="3" width="100" height="400" fill="#92C44D"/>
<rect x="153" y="3" width="100" height="400" fill="#6C9F34"/>
<rect x="253" y="3" width="100" height="400" fill="#92C44D"/>
<rect x="353" y="3" width="100" height="400" fill="#6C9F34"/>
<rect x="453" y="3" width="100" height="400" fill="#92C44D"/>
<rect x="553" y="3" width="100" height="400" fill="#6C9F34"/>
<rect x="653" y="3" width="100" height="400" fill="#92C44D"/>
<rect x="753" y="3" width="50" height="400" fill="#6C9F34"/>
<path fill-rule="evenodd" clip-rule="evenodd" d="M806 0V406L1.77468e-05 406L0 3.52314e-05L806 0ZM800 400V355.963C734.007 354.37 681 300.376 681 234V172C681 105.624 734.007 51.6298 800 50.0371V6L406 6.00002V143.074C437.743 144.637 463 170.869 463 203C463 235.131 437.743 261.363 406 262.926L406 400L800 400ZM687 234C687 297.062 737.322 348.371 800 349.962V56.0381C737.321 57.6292 687 108.938 687 172V234ZM406 256.917C434.428 255.36 457 231.817 457 203C457 174.183 434.428 150.64 406 149.083V256.917ZM400 400L400 262.926C368.257 261.363 343 235.131 343 203C343 170.869 368.257 144.637 400 143.074V6.00002L6 6.00003L6 50.0371C71.9926 51.6298 125 105.624 125 172V234C125 300.376 71.9926 354.37 6.00002 355.963L6.00002 400H400ZM349 203C349 231.817 371.572 255.36 400 256.917V149.083C371.572 150.64 349 174.183 349 203ZM7.46681 349.916C69.4618 347.569 119 296.569 119 234V172C119 108.938 68.6785 57.6293 6 56.0381L6.00002 349.962L7.46681 349.916Z" fill="white"/>
</svg>
