<svg width="406" height="806" viewBox="0 0 406 806" fill="none" xmlns="http://www.w3.org/2000/svg">
<rect x="3" y="803" width="50" height="400" transform="rotate(-90 3 803)" fill="#6C9F34"/>
<rect x="3" y="753" width="100" height="400" transform="rotate(-90 3 753)" fill="#92C44D"/>
<rect x="3" y="653" width="100" height="400" transform="rotate(-90 3 653)" fill="#6C9F34"/>
<rect x="3" y="553" width="100" height="400" transform="rotate(-90 3 553)" fill="#92C44D"/>
<rect x="3" y="453" width="100" height="400" transform="rotate(-90 3 453)" fill="#6C9F34"/>
<rect x="3" y="353" width="100" height="400" transform="rotate(-90 3 353)" fill="#92C44D"/>
<rect x="3" y="253" width="100" height="400" transform="rotate(-90 3 253)" fill="#6C9F34"/>
<rect x="3" y="153" width="100" height="400" transform="rotate(-90 3 153)" fill="#92C44D"/>
<rect x="3" y="53" width="50" height="400" transform="rotate(-90 3 53)" fill="#6C9F34"/>
<path fill-rule="evenodd" clip-rule="evenodd" d="M-3.52314e-05 0.00012207L406 0.000104323L406 806L3.52314e-05 806L-3.52314e-05 0.00012207ZM400 6.0001L355.963 6.00011C354.37 71.9927 300.376 125 234 125L172 125C105.624 125 51.6297 71.9927 50.0371 6.00012L5.99997 6.00012L6 400L143.074 400C144.637 368.257 170.869 343 203 343C235.131 343 261.363 368.257 262.926 400L400 400L400 6.0001ZM234 119C297.062 119 348.371 68.6786 349.962 6.00011L56.0381 6.00012C57.6292 68.6786 108.938 119 172 119L234 119ZM256.917 400C255.36 371.572 231.817 349 203 349C174.183 349 150.64 371.572 149.083 400L256.917 400ZM400 406L262.926 406C261.363 437.743 235.131 463 203 463C170.869 463 144.637 437.743 143.074 406L6 406L6.00003 800L50.0371 800C51.6298 734.008 105.624 681 172 681L234 681C300.376 681 354.37 734.007 355.963 800L400 800L400 406ZM203 457C231.817 457 255.36 434.428 256.917 406L149.083 406C150.64 434.428 174.183 457 203 457ZM349.916 798.533C347.569 736.538 296.569 687 234 687L172 687C108.938 687 57.6293 737.322 56.0381 800L349.962 800L349.916 798.533Z" fill="white"/>
</svg>
