<svg width="95" height="18" viewBox="0 0 95 18" fill="none" xmlns="http://www.w3.org/2000/svg">
<path d="M14.8622 5.18604C14.9859 5.18605 15.1084 5.19211 15.2288 5.20442C15.2485 5.20644 15.268 5.20969 15.2877 5.21203C15.3627 5.22097 15.4369 5.23273 15.5105 5.24627C15.5577 5.25497 15.6045 5.26426 15.651 5.2748C15.8641 5.32302 16.0702 5.38934 16.267 5.47389C16.2815 5.48013 16.2956 5.48712 16.31 5.49355C16.4582 5.55959 16.6013 5.63503 16.738 5.7199C16.7441 5.72367 16.7497 5.72814 16.7557 5.73195C17.7598 6.36366 18.4282 7.48178 18.4282 8.75698C18.4282 10.7289 16.8317 12.3276 14.8629 12.3279C14.5258 12.3279 14.1996 12.2798 13.8905 12.1922C13.8715 12.1869 13.8524 12.1821 13.8335 12.1764C13.8018 12.1668 13.7705 12.1564 13.7392 12.1459C13.7197 12.1395 13.7003 12.1331 13.681 12.1263C13.6527 12.1163 13.6247 12.1059 13.5968 12.0952C13.5713 12.0855 13.546 12.0757 13.5208 12.0654C13.4966 12.0556 13.4726 12.0454 13.4486 12.035C13.4244 12.0245 13.4004 12.0137 13.3765 12.0027C13.3519 11.9914 13.3273 11.9803 13.303 11.9684C13.2118 11.9239 13.1226 11.8757 13.0359 11.8239C13.007 11.8065 12.9788 11.7881 12.9504 11.77C12.9331 11.7589 12.9156 11.7483 12.8985 11.737C12.8777 11.7232 12.8576 11.7087 12.8371 11.6945C12.8097 11.6755 12.7823 11.6565 12.7554 11.6368C12.7406 11.6259 12.7258 11.615 12.7111 11.6038C12.6821 11.5818 12.6533 11.5595 12.625 11.5366C12.6104 11.5248 12.5957 11.5131 12.5813 11.5011C12.5024 11.4353 12.4264 11.3661 12.3534 11.2938L12.3414 11.2817C12.3307 11.271 12.3204 11.2597 12.3098 11.2488C12.285 11.2233 12.2604 11.1976 12.2363 11.1714C12.2245 11.1585 12.2132 11.1452 12.2015 11.1321C12.1864 11.1151 12.1707 11.0986 12.1559 11.0814L12.1116 11.0281C12.1078 11.0235 12.104 11.0188 12.1002 11.0142C12.0778 10.9867 12.056 10.9587 12.0344 10.9305C12.0167 10.9074 11.999 10.8843 11.9818 10.8607C11.9701 10.8446 11.9585 10.8283 11.947 10.8119C11.9316 10.79 11.9158 10.7683 11.9008 10.746C11.8409 10.6566 11.7849 10.5644 11.7331 10.4695C11.7247 10.4543 11.7171 10.4386 11.709 10.4232C11.6915 10.3901 11.6742 10.3568 11.6577 10.3231C11.6498 10.3069 11.6426 10.2905 11.6349 10.2742C11.6202 10.2429 11.6057 10.2116 11.5919 10.1798C11.5829 10.1592 11.5745 10.1384 11.5659 10.1176C11.5521 10.0841 11.5389 10.0503 11.526 10.0162C11.5207 10.002 11.5148 9.988 11.5096 9.97371C11.4524 9.81566 11.4062 9.65241 11.3716 9.48486C11.3691 9.47306 11.3669 9.4612 11.3646 9.44935C11.3572 9.41173 11.3505 9.3739 11.3444 9.33586C11.3405 9.31203 11.3364 9.2882 11.333 9.26421C11.3094 9.09852 11.2969 8.92919 11.2969 8.75698C11.2969 8.6953 11.2989 8.63401 11.3019 8.5731C11.3173 8.26883 11.3702 7.97446 11.457 7.69495C11.5438 7.41545 11.6646 7.15095 11.8134 6.90556C11.9325 6.70923 12.0696 6.52496 12.223 6.35585C12.3764 6.1868 12.5459 6.03259 12.7288 5.89553C12.7746 5.86124 12.8213 5.82809 12.8688 5.79599C12.9637 5.73175 13.062 5.67221 13.1631 5.61719C13.2136 5.58975 13.2645 5.56297 13.3163 5.53793C13.4722 5.4627 13.6344 5.39862 13.8019 5.34645C14.1368 5.24207 14.493 5.18607 14.8622 5.18604Z" fill="black"/>
<path d="M18.7014 0.153809C19.6994 0.153809 20.3234 1.23591 19.8244 2.10159L18.4171 4.54203C17.4574 3.72909 16.2172 3.23784 14.8619 3.2378C11.8188 3.23787 9.35177 5.70866 9.35177 8.75653C9.35177 11.1476 10.8702 13.1829 12.9937 13.9494L11.1224 17.1969C10.6233 18.0625 9.37597 18.0626 8.87698 17.1969L0.175627 2.10159C-0.323299 1.23599 0.30016 0.153995 1.29803 0.153809H18.7014Z" fill="url(#paint0_linear_32_50)"/>
<path d="M24 0.599863H30.984V2.99986H26.64V7.67986H30.048V10.0799H26.64V17.3999H24V0.599863Z" fill="black"/>
<path d="M36.09 17.6399C34.81 17.6399 33.834 17.2799 33.162 16.5599C32.49 15.8239 32.154 14.7759 32.154 13.4159V0.599863H34.794V13.6079C34.794 14.1839 34.906 14.5999 35.13 14.8559C35.37 15.1119 35.706 15.2399 36.138 15.2399C36.57 15.2399 36.898 15.1119 37.122 14.8559C37.362 14.5999 37.482 14.1839 37.482 13.6079V0.599863H40.026V13.4159C40.026 14.7759 39.69 15.8239 39.018 16.5599C38.346 17.2799 37.37 17.6399 36.09 17.6399Z" fill="black"/>
<path d="M43.9702 2.99986H41.2103V0.599863H49.3703V2.99986H46.6103V17.3999H43.9702V2.99986Z" fill="black"/>
<path d="M54.0804 17.6399C52.8004 17.6399 51.8324 17.2799 51.1764 16.5599C50.5204 15.8239 50.1924 14.7759 50.1924 13.4159V12.4559H52.6884V13.6079C52.6884 14.6959 53.1444 15.2399 54.0564 15.2399C54.5044 15.2399 54.8404 15.1119 55.0644 14.8559C55.3044 14.5839 55.4244 14.1519 55.4244 13.5599C55.4244 12.8559 55.2644 12.2399 54.9444 11.7119C54.6244 11.1679 54.0324 10.5199 53.1684 9.76786C52.0804 8.80786 51.3204 7.94386 50.8884 7.17586C50.4564 6.39186 50.2404 5.51186 50.2404 4.53586C50.2404 3.20786 50.5764 2.18386 51.2484 1.46386C51.9204 0.727863 52.8964 0.359863 54.1764 0.359863C55.4404 0.359863 56.3924 0.727863 57.0324 1.46386C57.6884 2.18386 58.0164 3.22386 58.0164 4.58386V5.27986H55.5204V4.41586C55.5204 3.83986 55.4084 3.42386 55.1844 3.16786C54.9604 2.89586 54.6324 2.75986 54.2004 2.75986C53.3204 2.75986 52.8804 3.29586 52.8804 4.36786C52.8804 4.97586 53.0404 5.54386 53.3604 6.07186C53.6964 6.59986 54.2964 7.23986 55.1604 7.99186C56.2644 8.95186 57.0244 9.82386 57.4404 10.6079C57.8564 11.3919 58.0644 12.3119 58.0644 13.3679C58.0644 14.7439 57.7204 15.7999 57.0324 16.5359C56.3604 17.2719 55.3764 17.6399 54.0804 17.6399Z" fill="black"/>
<path d="M61.5478 0.599863H65.1238L67.8598 17.3999H65.2198L64.7398 14.0639V14.1119H61.7398L61.2598 17.3999H58.8118L61.5478 0.599863ZM64.4278 11.8319L63.2518 3.52786H63.2038L62.0518 11.8319H64.4278Z" fill="black"/>
<path d="M69.1406 0.599863H71.7806V14.9999H76.1246V17.3999H69.1406V0.599863Z" fill="black"/>
<path d="M81.0409 17.6399C79.7609 17.6399 78.7849 17.2799 78.1129 16.5599C77.4409 15.8239 77.1049 14.7759 77.1049 13.4159V4.58386C77.1049 3.22386 77.4409 2.18386 78.1129 1.46386C78.7849 0.727863 79.7609 0.359863 81.0409 0.359863C82.3209 0.359863 83.2969 0.727863 83.9689 1.46386C84.6409 2.18386 84.9769 3.22386 84.9769 4.58386V6.02386H82.4809V4.41586C82.4809 3.31186 82.0249 2.75986 81.1129 2.75986C80.2009 2.75986 79.7449 3.31186 79.7449 4.41586V13.6079C79.7449 14.6959 80.2009 15.2399 81.1129 15.2399C82.0249 15.2399 82.4809 14.6959 82.4809 13.6079V10.3199H81.1609V7.91986H84.9769V13.4159C84.9769 14.7759 84.6409 15.8239 83.9689 16.5599C83.2969 17.2799 82.3209 17.6399 81.0409 17.6399Z" fill="black"/>
<path d="M90.4879 17.6399C89.1919 17.6399 88.1999 17.2719 87.5119 16.5359C86.8239 15.7999 86.4799 14.7599 86.4799 13.4159V4.58386C86.4799 3.23986 86.8239 2.19986 87.5119 1.46386C88.1999 0.727863 89.1919 0.359863 90.4879 0.359863C91.7839 0.359863 92.7759 0.727863 93.4639 1.46386C94.1519 2.19986 94.4959 3.23986 94.4959 4.58386V13.4159C94.4959 14.7599 94.1519 15.7999 93.4639 16.5359C92.7759 17.2719 91.7839 17.6399 90.4879 17.6399ZM90.4879 15.2399C91.3999 15.2399 91.8559 14.6879 91.8559 13.5839V4.41586C91.8559 3.31186 91.3999 2.75986 90.4879 2.75986C89.5759 2.75986 89.1199 3.31186 89.1199 4.41586V13.5839C89.1199 14.6879 89.5759 15.2399 90.4879 15.2399Z" fill="black"/>
<defs>
<linearGradient id="paint0_linear_32_50" x1="-0.769231" y1="2.68474" x2="14.6154" y2="11.5671" gradientUnits="userSpaceOnUse">
<stop offset="0.149038" stop-color="#00BC7D"/>
<stop offset="1" stop-color="#4F39F6"/>
</linearGradient>
</defs>
</svg>
