<svg width="28" height="26" viewBox="0 0 28 26" fill="none" xmlns="http://www.w3.org/2000/svg">
<path d="M20.8071 7.50635C20.9802 7.50636 21.1517 7.51485 21.3202 7.53209C21.3478 7.53492 21.3752 7.53946 21.4027 7.54274C21.5078 7.55526 21.6117 7.57172 21.7146 7.59068C21.7807 7.60286 21.8463 7.61586 21.9114 7.63062C22.2098 7.69813 22.4983 7.79098 22.7738 7.90936C22.7941 7.91809 22.8139 7.92788 22.834 7.93687C23.0415 8.02934 23.2418 8.13495 23.4332 8.25378C23.4417 8.25906 23.4495 8.26532 23.458 8.27064C24.8638 9.15506 25.7996 10.7205 25.7996 12.5058C25.7996 15.2666 23.5644 17.5048 20.808 17.5052C20.336 17.5052 19.8794 17.4379 19.4466 17.3153C19.42 17.3077 19.3932 17.301 19.3668 17.2931C19.3225 17.2797 19.2786 17.265 19.2348 17.2505C19.2075 17.2414 19.1803 17.2325 19.1532 17.223C19.1137 17.209 19.0745 17.1943 19.0354 17.1795C18.9997 17.1659 18.9642 17.1521 18.929 17.1377C18.8951 17.1239 18.8615 17.1096 18.828 17.0951C18.7941 17.0804 18.7604 17.0653 18.7269 17.0499C18.6925 17.034 18.6581 17.0185 18.6241 17.0019C18.4963 16.9396 18.3715 16.8722 18.2501 16.7995C18.2096 16.7753 18.1702 16.7494 18.1304 16.7241C18.1062 16.7086 18.0817 16.6938 18.0578 16.6779C18.0287 16.6587 18.0004 16.6383 17.9718 16.6184C17.9334 16.5918 17.8951 16.5653 17.8575 16.5377C17.8367 16.5224 17.816 16.5071 17.7954 16.4915C17.7548 16.4607 17.7145 16.4294 17.6749 16.3974C17.6545 16.3809 17.6339 16.3645 17.6137 16.3477C17.5033 16.2555 17.3968 16.1587 17.2947 16.0574L17.2778 16.0406C17.2628 16.0255 17.2484 16.0097 17.2335 15.9944C17.1988 15.9587 17.1644 15.9228 17.1307 15.8861C17.1141 15.868 17.0983 15.8494 17.082 15.8311C17.0608 15.8073 17.0389 15.7842 17.0181 15.76L16.9561 15.6855C16.9508 15.679 16.9455 15.6725 16.9401 15.666C16.9087 15.6275 16.8782 15.5882 16.848 15.5488C16.8232 15.5165 16.7984 15.4841 16.7744 15.4511C16.7579 15.4285 16.7418 15.4057 16.7257 15.3828C16.704 15.3521 16.6819 15.3217 16.661 15.2905C16.577 15.1654 16.4987 15.0362 16.4261 14.9034C16.4144 14.8821 16.4038 14.8602 16.3924 14.8386C16.3679 14.7922 16.3437 14.7456 16.3206 14.6984C16.3096 14.6758 16.2994 14.6528 16.2887 14.63C16.2681 14.5862 16.2478 14.5423 16.2284 14.4978C16.2159 14.469 16.2041 14.4399 16.1921 14.4108C16.1727 14.3638 16.1542 14.3164 16.1363 14.2687C16.1288 14.2488 16.1205 14.2293 16.1132 14.2093C16.0331 13.988 15.9685 13.7594 15.92 13.5249C15.9166 13.5083 15.9135 13.4917 15.9103 13.4751C15.8999 13.4225 15.8906 13.3695 15.8819 13.3162C15.8765 13.2829 15.8707 13.2495 15.8659 13.2159C15.833 12.984 15.8154 12.7469 15.8154 12.5058C15.8154 12.4194 15.8182 12.3336 15.8225 12.2484C15.8441 11.8224 15.9181 11.4102 16.0397 11.0189C16.1612 10.6276 16.3302 10.2573 16.5387 9.91375C16.7054 9.63887 16.8972 9.38089 17.1121 9.14413C17.3269 8.90745 17.5641 8.69156 17.8202 8.49967C17.8843 8.45165 17.9497 8.40525 18.0161 8.3603C18.149 8.27037 18.2867 8.187 18.4282 8.10997C18.4988 8.07156 18.5701 8.03406 18.6427 7.99901C18.8609 7.89369 19.0881 7.80398 19.3225 7.73093C19.7914 7.58479 20.2901 7.50639 20.8071 7.50635Z" fill="black"/>
<path d="M4.83981 11.1581L0.245943 3.18718C-0.452559 1.97533 0.419864 0.461251 1.81688 0.460938H11.0169L4.83981 11.1581Z" fill="#00BC7D"/>
<path d="M26.1818 0.460938C27.579 0.460937 28.4527 1.97519 27.7541 3.18718L25.7839 6.60387C24.4403 5.46574 22.7033 4.77867 20.8058 4.77863C16.5457 4.77904 13.092 8.23787 13.092 12.5048C13.0921 15.8519 15.2177 18.7011 18.1903 19.7743L15.5707 24.3217C14.8719 25.5328 13.1262 25.533 12.4275 24.3217L6.4541 13.9595L14.2486 0.460938H26.1818Z" fill="url(#paint0_linear_71_26)"/>
<defs>
<linearGradient id="paint0_linear_71_26" x1="4.19955" y1="4.66104" x2="17.227" y2="25.2301" gradientUnits="userSpaceOnUse">
<stop stop-color="#00BC7D"/>
<stop offset="1" stop-color="#4F39F6"/>
</linearGradient>
</defs>
</svg>
