<svg width="137" height="24" viewBox="0 0 137 24" fill="none" xmlns="http://www.w3.org/2000/svg">
<path d="M45.6077 2.90345L44.7124 6.0778H38.4993L37.7939 11.0699H43.2202L42.7861 14.2443H37.3598L36.3017 21.7054H31.9336L34.5653 2.90345H45.6077Z" fill="black"/>
<path d="M47.6801 22.1666C46.5405 22.1666 45.6724 21.8501 45.0755 21.217C44.4786 20.5839 44.1801 19.7067 44.1801 18.5853C44.1801 18.2597 44.2073 17.9251 44.2615 17.5814L45.7266 7.2987H49.9319L48.6025 16.9031C48.5663 17.2649 48.5483 17.491 48.5483 17.5814C48.5483 18.0155 48.6296 18.323 48.7924 18.5039C48.9733 18.6847 49.2265 18.7752 49.5521 18.7752C50.4022 18.7752 51.3247 18.0155 52.3195 16.4962L53.5947 7.2987H57.8L55.7923 21.7054H52.1567L52.2381 19.562C50.8996 21.2984 49.3803 22.1666 47.6801 22.1666Z" fill="black"/>
<path d="M64.3257 16.9303C64.2895 17.2558 64.2714 17.4729 64.2714 17.5814C64.2714 17.9974 64.3528 18.3049 64.5156 18.5039C64.6965 18.6847 64.9587 18.7752 65.3024 18.7752C65.5556 18.7752 65.7998 18.739 66.0349 18.6667C66.2882 18.5943 66.5866 18.4767 66.9303 18.314L68.0426 21.1085C67.4638 21.4521 66.8217 21.7144 66.1163 21.8953C65.4109 22.0761 64.7417 22.1666 64.1086 22.1666C62.7882 22.1666 61.7753 21.8139 61.0699 21.1085C60.3645 20.4031 60.0118 19.3902 60.0118 18.0698C60.0118 17.708 60.0389 17.3282 60.0932 16.9303L61.0428 10.2831H59.0622L59.4692 7.2987H61.6397L62.535 4.09722L66.1706 3.69025L65.6551 7.2987H68.9651L68.0698 10.2831H65.2481L64.3257 16.9303Z" fill="black"/>
<path d="M75.9643 6.83747C78.0263 6.83747 79.7898 7.45244 81.2549 8.68239L79.3828 10.9885C78.8583 10.6268 78.2976 10.3555 77.7007 10.1746C77.1219 9.97564 76.5521 9.87616 75.9914 9.87616C75.3765 9.87616 74.8971 9.98469 74.5535 10.2017C74.2279 10.4188 74.0651 10.7082 74.0651 11.0699C74.0651 11.3232 74.1375 11.5312 74.2822 11.6939C74.445 11.8567 74.7072 12.0195 75.069 12.1823C75.4488 12.327 76.0457 12.526 76.8596 12.7792C78.1077 13.1771 79.0392 13.7288 79.6541 14.4342C80.2872 15.1396 80.6037 16.044 80.6037 17.1473C80.6037 18.0698 80.3686 18.9108 79.8983 19.6705C79.4281 20.4302 78.7045 21.0361 77.7278 21.4883C76.7511 21.9405 75.5573 22.1666 74.1465 22.1666C72.8985 22.1666 71.7499 21.9495 70.7009 21.5154C69.6518 21.0813 68.8017 20.5116 68.1505 19.8062L70.2939 17.5814C71.4334 18.5943 72.7266 19.1008 74.1736 19.1008C74.8971 19.1008 75.4488 18.9651 75.8286 18.6938C76.2085 18.4225 76.3984 18.0788 76.3984 17.6628C76.3984 17.3372 76.317 17.084 76.1542 16.9031C76.0095 16.7042 75.7473 16.5233 75.3674 16.3605C74.9876 16.1796 74.3816 15.9445 73.5496 15.6551C72.2835 15.221 71.352 14.6784 70.7551 14.0272C70.1763 13.3761 69.8869 12.526 69.8869 11.4769C69.8869 10.6268 70.1221 9.85807 70.5923 9.17075C71.0626 8.46534 71.759 7.90463 72.6814 7.48862C73.6039 7.05452 74.6982 6.83747 75.9643 6.83747Z" fill="black"/>
<path d="M90.4159 6.83747C92.4959 6.83747 94.4584 7.34392 96.3034 8.35682L94.9739 17.5814C94.9378 17.907 94.9197 18.115 94.9197 18.2054C94.9197 18.4948 94.9739 18.73 95.0824 18.9108C95.191 19.0736 95.3899 19.2093 95.6793 19.3178L94.4584 22.0852C93.6264 22.0128 92.912 21.7867 92.3151 21.4069C91.7182 21.009 91.3203 20.4392 91.1213 19.6976C89.9637 21.3436 88.5348 22.1666 86.8346 22.1666C85.3333 22.1666 84.1757 21.6601 83.3618 20.6472C82.5659 19.6163 82.168 18.2145 82.168 16.4419C82.168 14.9226 82.4484 13.4303 83.0091 11.9653C83.5698 10.5002 84.4651 9.27928 85.6951 8.30255C86.9431 7.32583 88.5167 6.83747 90.4159 6.83747ZM90.3074 9.87616C89.4392 9.87616 88.7157 10.2108 88.1369 10.88C87.5762 11.5492 87.1692 12.3813 86.916 13.3761C86.6627 14.3709 86.5361 15.3838 86.5361 16.4148C86.5361 17.3734 86.6718 18.0517 86.9431 18.4496C87.2325 18.8294 87.6395 19.0194 88.164 19.0194C89.1226 19.0194 90.0361 18.3501 90.9043 17.0117L91.9081 10.1475C91.3836 9.9666 90.85 9.87616 90.3074 9.87616Z" fill="black"/>
<path d="M102.225 17.8256C102.189 18.1693 102.216 18.4134 102.307 18.5581C102.397 18.7028 102.56 18.7752 102.795 18.7752C102.994 18.7752 103.229 18.73 103.5 18.6395L104.016 21.624C103.202 21.9857 102.298 22.1666 101.303 22.1666C100.236 22.1666 99.4035 21.8953 98.8066 21.3526C98.2278 20.7919 97.9384 19.978 97.9384 18.9108C97.9384 18.6034 97.9656 18.2778 98.0198 17.9341L100.326 1.57402L104.558 1.11279L102.225 17.8256Z" fill="black"/>
<path d="M116.119 2.44222C118.579 2.44222 120.559 3.23807 122.06 4.82976L119.619 7.02739C119.004 6.53903 118.434 6.19537 117.909 5.9964C117.385 5.77935 116.77 5.67083 116.064 5.67083C114.672 5.67083 113.55 6.15015 112.7 7.10878C111.85 8.04933 111.244 9.23406 110.882 10.663C110.521 12.0738 110.34 13.5389 110.34 15.0582C110.34 16.4329 110.593 17.4186 111.099 18.0155C111.606 18.6124 112.375 18.9108 113.406 18.9108C114.292 18.9108 115.169 18.7028 116.037 18.2868L116.634 14.0272H114.247L114.274 10.88H121.328L120.053 20.186C119.04 20.8191 117.927 21.3074 116.716 21.6511C115.522 21.9947 114.328 22.1666 113.134 22.1666C110.729 22.1666 108.911 21.5335 107.681 20.2674C106.451 18.9832 105.836 17.1202 105.836 14.6784C105.836 12.6526 106.189 10.7082 106.894 8.84518C107.618 6.98217 108.748 5.45378 110.285 4.26001C111.841 3.04815 113.785 2.44222 116.119 2.44222Z" fill="black"/>
<path d="M128.783 22.1666C126.884 22.1666 125.401 21.624 124.334 20.5387C123.285 19.4535 122.76 17.9522 122.76 16.0349C122.76 14.5518 123.022 13.1138 123.547 11.7211C124.071 10.3103 124.931 9.14362 126.124 8.22116C127.336 7.2987 128.892 6.83747 130.791 6.83747C132.672 6.83747 134.146 7.38009 135.213 8.46534C136.28 9.55059 136.814 11.0247 136.814 12.8877C136.814 14.3709 136.552 15.8179 136.027 17.2287C135.503 18.6395 134.634 19.8152 133.423 20.7558C132.229 21.6963 130.682 22.1666 128.783 22.1666ZM129.082 19.0194C130.33 19.0194 131.207 18.3592 131.713 17.0388C132.22 15.7003 132.482 14.2533 132.5 12.6978C132.5 11.7573 132.328 11.0699 131.985 10.6358C131.659 10.2017 131.162 9.98469 130.492 9.98469C129.244 9.98469 128.358 10.6539 127.834 11.9924C127.327 13.3309 127.074 14.7688 127.074 16.3062C127.074 17.2468 127.237 17.9341 127.562 18.3682C127.888 18.8023 128.394 19.0194 129.082 19.0194Z" fill="black"/>
<path d="M20.1613 6.82568C20.3291 6.8257 20.4952 6.83392 20.6586 6.85063C20.6853 6.85337 20.7118 6.85777 20.7384 6.86095C20.8403 6.87308 20.9409 6.88903 21.0407 6.90739C21.1047 6.9192 21.1683 6.9318 21.2314 6.9461C21.5205 7.01151 21.8001 7.10148 22.067 7.21618C22.0866 7.22464 22.1058 7.23412 22.1254 7.24284C22.3264 7.33244 22.5204 7.43477 22.7059 7.5499C22.7141 7.55502 22.7217 7.56108 22.7299 7.56625C24.0921 8.4232 24.9988 9.93999 24.9988 11.6699C24.9988 14.345 22.833 16.5136 20.1622 16.5141C19.7049 16.5141 19.2625 16.4488 18.8431 16.33C18.8174 16.3227 18.7914 16.3162 18.7658 16.3085C18.7228 16.2955 18.6803 16.2813 18.6379 16.2672C18.6115 16.2584 18.5851 16.2498 18.5589 16.2405C18.5205 16.2271 18.4825 16.2128 18.4446 16.1984C18.4101 16.1853 18.3757 16.1719 18.3416 16.158C18.3087 16.1446 18.2762 16.1308 18.2437 16.1167C18.2108 16.1025 18.1783 16.0878 18.1458 16.0728C18.1125 16.0575 18.0791 16.0424 18.0462 16.0264C17.9224 15.966 17.8014 15.9007 17.6838 15.8303C17.6445 15.8068 17.6063 15.7817 17.5678 15.7572C17.5444 15.7422 17.5206 15.7278 17.4974 15.7124C17.4692 15.6938 17.4419 15.674 17.4141 15.6548C17.3769 15.629 17.3398 15.6033 17.3033 15.5765C17.2832 15.5617 17.2631 15.5469 17.2432 15.5318C17.2039 15.5019 17.1648 15.4717 17.1264 15.4406C17.1066 15.4246 17.0867 15.4088 17.0672 15.3925C16.9601 15.3031 16.8569 15.2093 16.758 15.1112L16.7417 15.0949C16.7271 15.0802 16.7132 15.065 16.6988 15.0501C16.6651 15.0156 16.6317 14.9808 16.5991 14.9452C16.5831 14.9277 16.5677 14.9096 16.5519 14.8919C16.5314 14.8689 16.5101 14.8465 16.4901 14.8231L16.43 14.7508C16.4248 14.7445 16.4196 14.7382 16.4145 14.7319C16.3841 14.6946 16.3545 14.6566 16.3252 14.6184C16.3011 14.587 16.2772 14.5557 16.2539 14.5237C16.2379 14.5018 16.2223 14.4797 16.2067 14.4575C16.1857 14.4278 16.1643 14.3983 16.144 14.3681C16.0626 14.2469 15.9867 14.1217 15.9164 13.9931C15.9051 13.9724 15.8948 13.9511 15.8838 13.9303C15.86 13.8853 15.8366 13.8402 15.8142 13.7944C15.8035 13.7725 15.7937 13.7502 15.7833 13.7281C15.7634 13.6857 15.7436 13.6431 15.7249 13.6C15.7128 13.5721 15.7013 13.5439 15.6897 13.5157C15.6709 13.4702 15.653 13.4243 15.6356 13.3781C15.6283 13.3588 15.6203 13.3398 15.6133 13.3204C15.5357 13.106 15.473 12.8846 15.426 12.6573C15.4227 12.6413 15.4197 12.6252 15.4166 12.6091C15.4066 12.5581 15.3975 12.5068 15.3891 12.4552C15.3839 12.4228 15.3783 12.3905 15.3737 12.358C15.3417 12.1332 15.3247 11.9035 15.3247 11.6699C15.3247 11.5862 15.3274 11.5031 15.3316 11.4204C15.3525 11.0077 15.4242 10.6083 15.542 10.2292C15.6597 9.85002 15.8235 9.4912 16.0255 9.15833C16.187 8.89198 16.3729 8.64202 16.5811 8.4126C16.7892 8.18328 17.0191 7.97409 17.2673 7.78816C17.3294 7.74163 17.3927 7.69667 17.4571 7.65312C17.5858 7.56598 17.7192 7.4852 17.8564 7.41056C17.9248 7.37334 17.9938 7.33701 18.0642 7.30305C18.2756 7.201 18.4957 7.11407 18.7229 7.04329C19.1773 6.90169 19.6605 6.82573 20.1613 6.82568Z" fill="black"/>
<path d="M4.68951 10.365L0.238305 2.64158C-0.438505 1.46736 0.406825 0.000303936 1.76046 0H10.6748L4.68951 10.365Z" fill="#00BC7D"/>
<path d="M25.3694 0C26.7233 -1.18547e-07 27.5698 1.46723 26.8929 2.64158L24.9839 5.95217C23.682 4.84938 21.999 4.18365 20.1604 4.18361C16.0326 4.184 12.6861 7.53543 12.6861 11.6698C12.6863 14.913 14.7458 17.6737 17.6262 18.7136L15.0879 23.1198C14.4108 24.2933 12.7193 24.2935 12.0423 23.1198L6.25439 13.0794L13.8069 0H25.3694Z" fill="url(#paint0_linear_59_125)"/>
<defs>
<linearGradient id="paint0_linear_59_125" x1="4.06986" y1="4.06968" x2="16.6927" y2="24" gradientUnits="userSpaceOnUse">
<stop stop-color="#00BC7D"/>
<stop offset="1" stop-color="#4F39F6"/>
</linearGradient>
</defs>
</svg>
