<svg viewBox="0 0 404 834" fill="none" xmlns="http://www.w3.org/2000/svg">
<path d="M142.071 420C143.637 453.401 171.212 480 205 480C238.788 480 266.363 453.401 267.929 420H401V831H356.961C355.336 766.696 301.654 714 237 714H174C109.346 714 55.6637 766.696 54.0391 831H3V420H142.071ZM237 720C298.34 720 349.334 770.008 350.959 831H60.041C61.6657 770.008 112.66 720 174 720H237ZM261.922 420C260.362 450.086 235.474 474 205 474C174.526 474 149.638 450.086 148.078 420H261.922ZM54.0391 3C55.6637 67.304 109.346 120 174 120H237C301.654 120 355.336 67.304 356.961 3H401V414H267.929C266.363 380.599 238.788 354 205 354C171.212 354 143.637 380.599 142.071 414H3V3H54.0391ZM205 360C235.474 360 260.362 383.914 261.922 414H148.078C149.638 383.914 174.526 360 205 360ZM350.959 3C349.334 63.9916 298.34 114 237 114H174C112.66 114 61.6657 63.9916 60.041 3H350.959Z" />
</svg>
