<svg viewBox="0 0 410 840" fill="none" xmlns="http://www.w3.org/2000/svg">
<path d="M410 840H0V0H410V840ZM6 834H57.0391C58.6637 769.696 112.346 717 177 717H240C304.654 717 358.336 769.696 359.961 834H404V423H270.929C269.363 456.401 241.788 483 208 483C174.212 483 146.637 456.401 145.071 423H6V834ZM177 723C115.66 723 64.6657 773.008 63.041 834H353.959C352.334 773.008 301.34 723 240 723H177ZM151.078 423C152.638 453.086 177.526 477 208 477C238.474 477 263.362 453.086 264.922 423H151.078ZM6 417H145.071C146.637 383.599 174.212 357 208 357C241.788 357 269.363 383.599 270.929 417H404V6H359.961C358.336 70.304 304.654 123 240 123H177C112.346 123 58.6637 70.304 57.0391 6H6V417ZM208 363C177.526 363 152.638 386.914 151.078 417H264.922C263.362 386.914 238.474 363 208 363ZM63.041 6C64.6657 66.9916 115.66 117 177 117H240C301.34 117 352.334 66.9916 353.959 6H63.041Z" fill="white"/>
</svg>
