<svg width="130" height="22" viewBox="0 0 130 22" fill="none" xmlns="http://www.w3.org/2000/svg">
<ellipse cx="13.7132" cy="13.7144" rx="4.89092" ry="4.89112" fill="black"/>
<path d="M21.2129 5.7002L21.2119 5.69922V5.74512C21.2119 6.40946 20.5776 6.89157 19.9316 6.73633C18.2013 6.32022 15.3885 5.77313 11.9971 5.5752L6.28516 5.49902C5.49773 5.49902 4.92535 6.25276 5.10449 7.01953C5.61602 9.20827 6.28516 12.9192 6.28516 17.2852V21C6.28491 21.5521 5.83729 22 5.28516 22H0V0H21.2129V5.7002Z" fill="url(#paint0_linear_60_2)"/>
<path d="M41.8701 15.9805C41.8701 16.6858 41.9793 17.1833 42.1963 17.4727C42.4314 17.7438 42.7839 17.8798 43.2539 17.8799C44.1583 17.8799 44.9367 17.3187 45.5879 16.1973V6.18555H49.874V20.5928H46.1572L45.9678 18.7744C44.9188 20.2937 43.4625 21.0536 41.5996 21.0537C40.2794 21.0537 39.2752 20.656 38.5879 19.8604C37.9187 19.0645 37.584 17.9514 37.584 16.5225V6.18555H41.8701V15.9805ZM57.9395 6.18555H61.249L60.7881 9.16992H57.9395V15.79C57.9395 16.4592 58.0476 16.9391 58.2646 17.2285C58.4817 17.5179 58.8257 17.6621 59.2959 17.6621C59.7843 17.6621 60.3001 17.5087 60.8428 17.2012L62.2803 19.9141C61.7558 20.2758 61.1409 20.5559 60.4355 20.7549C59.7484 20.9538 59.0612 21.0537 58.374 21.0537C55.2268 21.0356 53.6524 19.2993 53.6523 15.8447V9.16992H51.6182V6.18555H53.6523V3.06543L57.9395 2.57715V6.18555ZM68.7852 5.72461C69.8159 5.72463 70.7833 5.8782 71.6875 6.18555C72.5918 6.49301 73.3879 6.92763 74.0752 7.48828L72.502 9.90332C71.3263 9.16173 70.141 8.79004 68.9473 8.79004C68.3868 8.79009 67.9529 8.89 67.6455 9.08887C67.3561 9.26974 67.2109 9.53231 67.2109 9.87598C67.211 10.1471 67.2749 10.3729 67.4014 10.5537C67.546 10.7165 67.8263 10.8885 68.2422 11.0693C68.6582 11.2502 69.3007 11.4675 70.1689 11.7207C71.67 12.1548 72.7824 12.7244 73.5059 13.4297C74.2474 14.117 74.6181 15.0758 74.6182 16.3057C74.6182 17.2824 74.3381 18.1329 73.7773 18.8564C73.2166 19.5618 72.4474 20.1045 71.4707 20.4844C70.4941 20.8641 69.4085 21.0537 68.2148 21.0537C67.0033 21.0537 65.8731 20.8641 64.8242 20.4844C63.7933 20.1045 62.9159 19.5794 62.1924 18.9102L64.2812 16.5771C65.493 17.5176 66.7681 17.9882 68.1064 17.9883C68.7575 17.9883 69.2642 17.8708 69.626 17.6357C70.0057 17.4007 70.1952 17.0657 70.1953 16.6318C70.1953 16.2882 70.1232 16.0163 69.9785 15.8174C69.8338 15.6185 69.5536 15.4372 69.1377 15.2744C68.7217 15.0936 68.0614 14.8772 67.1572 14.624C65.7286 14.2081 64.6615 13.6291 63.9561 12.8877C63.2507 12.1462 62.8975 11.2234 62.8975 10.1201C62.8975 9.28826 63.1324 8.54656 63.6025 7.89551C64.0909 7.22627 64.7788 6.70113 65.665 6.32129C66.5694 5.92344 67.6096 5.72461 68.7852 5.72461ZM82.042 5.72461C84.104 5.72461 85.6146 6.14989 86.5732 7C87.5317 7.85009 88.0107 9.12516 88.0107 10.8252V16.4141C88.0107 16.9567 88.0838 17.3552 88.2285 17.6084C88.3912 17.8613 88.644 18.0512 88.9873 18.1777L88.0928 20.9727C87.2065 20.9003 86.4826 20.7098 85.9219 20.4023C85.3612 20.0768 84.9266 19.5701 84.6191 18.8828C83.6786 20.3298 82.2318 21.0537 80.2783 21.0537C78.8496 21.0537 77.7104 20.6376 76.8604 19.8057C76.0102 18.9736 75.585 17.8883 75.585 16.5498C75.585 14.9763 76.1637 13.7734 77.3213 12.9414C78.4789 12.1094 80.1523 11.6934 82.3408 11.6934H83.8057V11.0693C83.8056 10.2193 83.6244 9.64047 83.2627 9.33301C82.901 9.00763 82.2682 8.84478 81.3643 8.84473C80.894 8.84473 80.3235 8.91682 79.6543 9.06152C78.9852 9.18813 78.2981 9.3694 77.5928 9.60449L76.6162 6.7832C77.5204 6.43963 78.4425 6.17696 79.3828 5.99609C80.3414 5.81523 81.2281 5.72462 82.042 5.72461ZM95.3115 16.7666C95.3115 17.3634 95.5557 17.662 96.0439 17.6621C96.2972 17.6621 96.533 17.6168 96.75 17.5264L97.5908 20.5654C96.8131 20.891 95.9448 21.0537 94.9863 21.0537C93.7384 21.0537 92.7611 20.7014 92.0557 19.9961C91.3683 19.2726 91.0244 18.2501 91.0244 16.9297V0.460938L95.3115 0V16.7666ZM107.436 1.3291C109.859 1.3291 111.949 2.09831 113.703 3.63574L111.451 5.99609C110.782 5.48966 110.158 5.12818 109.579 4.91113C109.018 4.67602 108.367 4.55764 107.626 4.55762C106.233 4.55762 105.121 5.10975 104.289 6.21289C103.457 7.29809 103.041 8.95313 103.041 11.1777C103.041 13.5833 103.357 15.2928 103.99 16.3057C104.623 17.3004 105.609 17.7978 106.947 17.7979C107.888 17.7979 108.738 17.5898 109.498 17.1738V12.9141H107.056L106.622 9.76758H113.812V19.0732C112.835 19.7063 111.759 20.1944 110.583 20.5381C109.407 20.8817 108.231 21.0537 107.056 21.0537C104.198 21.0536 102.046 20.2216 100.599 18.5576C99.1517 16.8755 98.4287 14.4153 98.4287 11.1777C98.4287 9.11595 98.817 7.34343 99.5947 5.86035C100.391 4.37728 101.467 3.25577 102.823 2.49609C104.198 1.71838 105.735 1.32915 107.436 1.3291ZM122.942 5.72461C125.149 5.72465 126.876 6.40324 128.124 7.75977C129.372 9.09815 129.996 10.9789 129.996 13.4023C129.996 14.9398 129.707 16.2877 129.128 17.4453C128.567 18.5848 127.754 19.4714 126.687 20.1045C125.637 20.7375 124.389 21.0537 122.942 21.0537C120.754 21.0537 119.026 20.3844 117.76 19.0459C116.512 17.6894 115.888 15.7994 115.888 13.376C115.888 11.8385 116.169 10.4999 116.729 9.36035C117.308 8.20278 118.122 7.30688 119.171 6.67383C120.238 6.04082 121.495 5.72461 122.942 5.72461ZM25.5605 14.5869C27.4013 14.7482 28.8446 15.1252 30.0098 15.6182V20.5928H25.5605V14.5869ZM82.7471 14.0537C81.7706 14.0538 81.0381 14.2257 80.5498 14.5693C80.0796 14.913 79.8448 15.4466 79.8447 16.1699C79.8447 16.7485 79.9891 17.2008 80.2783 17.5264C80.5858 17.8338 81.002 17.9882 81.5264 17.9883C82.503 17.9883 83.263 17.5268 83.8057 16.6045V14.0537H82.7471ZM122.942 8.87207C122.074 8.87207 121.422 9.24279 120.988 9.98438C120.554 10.7079 120.338 11.8387 120.338 13.376C120.338 14.9494 120.546 16.0978 120.962 16.8213C121.396 17.5447 122.056 17.9062 122.942 17.9062C123.81 17.9062 124.461 17.5447 124.896 16.8213C125.33 16.0797 125.547 14.9398 125.547 13.4023C125.547 11.829 125.33 10.6805 124.896 9.95703C124.48 9.23368 123.829 8.87212 122.942 8.87207ZM36.3037 4.96484H30.0098V9.95703H35.4902V13H20C21.62 12.3838 23.9153 11.9805 25.5605 10.3066V1.79102H36.7656L36.3037 4.96484Z" fill="black"/>
<defs>
<linearGradient id="paint0_linear_60_2" x1="10.6064" y1="0" x2="10.6064" y2="22" gradientUnits="userSpaceOnUse">
<stop stop-color="#00BC7D"/>
<stop offset="1" stop-color="#4F39F6"/>
</linearGradient>
</defs>
</svg>
