<svg width="131" height="24" viewBox="0 0 131 24" fill="none" xmlns="http://www.w3.org/2000/svg">
<path d="M24.3118 0C25.6092 -1.13603e-07 26.4204 1.40674 25.7717 2.53212L23.9423 5.70469C22.6947 4.64787 21.0824 4.00924 19.3205 4.00919C15.3644 4.00927 12.1573 7.22131 12.1573 11.1835C12.1573 14.2919 14.1312 16.9378 16.8919 17.9342L14.4592 22.1561C13.8103 23.2812 12.1888 23.2814 11.5401 22.1561L0.228315 2.53212C-0.420289 1.40684 0.390208 0.000242597 1.68745 0H24.3118Z" fill="black"/>
<path d="M19.3205 6.54131C19.4812 6.54133 19.6404 6.54921 19.797 6.56522C19.8226 6.56784 19.848 6.57206 19.8735 6.57511C19.9711 6.58673 20.0675 6.60202 20.1632 6.61962C20.2245 6.63093 20.2854 6.643 20.3459 6.65671C20.6229 6.71939 20.8908 6.80561 21.1466 6.91553C21.1655 6.92364 21.1839 6.93272 21.2026 6.94108C21.3953 7.02694 21.5812 7.125 21.7589 7.23534C21.7668 7.24024 21.7741 7.24605 21.782 7.251C23.0873 8.07223 23.9563 9.52578 23.9563 11.1835C23.9563 13.7471 21.8807 15.8253 19.3213 15.8258C18.883 15.8258 18.459 15.7632 18.0572 15.6494C18.0325 15.6424 18.0076 15.6361 17.9831 15.6288C17.9419 15.6163 17.9012 15.6027 17.8605 15.5892C17.8352 15.5808 17.8099 15.5725 17.7848 15.5636C17.748 15.5507 17.7116 15.5371 17.6753 15.5233C17.6422 15.5107 17.6093 15.4978 17.5766 15.4845C17.5451 15.4717 17.5139 15.4584 17.4828 15.445C17.4513 15.4313 17.4201 15.4172 17.3889 15.4029C17.357 15.3882 17.325 15.3738 17.2935 15.3584C17.1748 15.3005 17.0589 15.2379 16.9462 15.1705C16.9086 15.148 16.872 15.124 16.8351 15.1004C16.8126 15.0861 16.7898 15.0723 16.7676 15.0576C16.7406 15.0397 16.7144 15.0208 16.6878 15.0023C16.6521 14.9776 16.6165 14.953 16.5816 14.9273C16.5623 14.9131 16.5431 14.8989 16.524 14.8845C16.4863 14.8558 16.4489 14.8268 16.4121 14.7971C16.3931 14.7817 16.374 14.7666 16.3553 14.7509C16.2527 14.6653 16.1538 14.5754 16.059 14.4814L16.0434 14.4657C16.0294 14.4517 16.016 14.4371 16.0022 14.4229C15.97 14.3898 15.938 14.3564 15.9068 14.3223C15.8914 14.3055 15.8766 14.2882 15.8615 14.2712C15.8418 14.2491 15.8215 14.2277 15.8022 14.2053L15.7446 14.136C15.7397 14.13 15.7348 14.1239 15.7298 14.1179C15.7007 14.0821 15.6723 14.0457 15.6442 14.0091C15.6212 13.9791 15.5982 13.949 15.5759 13.9184C15.5606 13.8974 15.5456 13.8762 15.5307 13.855C15.5106 13.8264 15.49 13.7982 15.4706 13.7692C15.3926 13.6531 15.3199 13.5331 15.2525 13.4099C15.2417 13.39 15.2318 13.3697 15.2212 13.3497C15.1985 13.3066 15.176 13.2633 15.1546 13.2195C15.1443 13.1985 15.1349 13.1771 15.1249 13.156C15.1058 13.1153 15.0869 13.0745 15.069 13.0332C15.0574 13.0064 15.0464 12.9794 15.0352 12.9524C15.0173 12.9088 15.0001 12.8648 14.9834 12.8205C14.9764 12.802 14.9687 12.7839 14.962 12.7653C14.8876 12.5598 14.8276 12.3476 14.7826 12.1298C14.7794 12.1144 14.7766 12.099 14.7735 12.0836C14.7639 12.0347 14.7552 11.9855 14.7472 11.9361C14.7422 11.9051 14.7368 11.8741 14.7324 11.8429C14.7018 11.6275 14.6855 11.4074 14.6855 11.1835C14.6855 11.1034 14.688 11.0237 14.6921 10.9445C14.7121 10.5489 14.7808 10.1663 14.8937 9.8029C15.0065 9.43955 15.1635 9.0957 15.357 8.7767C15.5118 8.52146 15.69 8.28192 15.8895 8.06207C16.0889 7.84231 16.3092 7.64184 16.547 7.46366C16.6065 7.41907 16.6672 7.37599 16.7289 7.33425C16.8523 7.25074 16.9801 7.17334 17.1116 7.10181C17.1772 7.06614 17.2433 7.03132 17.3108 6.99878C17.5134 6.90098 17.7243 6.81768 17.942 6.74985C18.3774 6.61416 18.8405 6.54136 19.3205 6.54131Z" fill="black"/>
<path d="M32 18.5048V0H43.8413V2.78594H35.3176V7.84665H43.0246V10.6326H35.3176V18.5048H32Z" fill="black"/>
<path d="M54.2217 12.6773V4.6262H57.4628V18.5048H54.3238V16.0511H54.1707C53.5327 17.5847 52.0781 18.6837 50.011 18.6837C47.2803 18.6837 45.3918 16.7923 45.3663 13.4696V4.6262H48.6329V12.9585C48.6329 14.722 49.6792 15.8466 51.2614 15.8466C52.6905 15.8466 54.2217 14.7987 54.2217 12.6773Z" fill="black"/>
<path d="M67.2308 4.6262V7.13099H64.5002V14.3387C64.5002 15.6677 65.1637 15.9489 65.9803 15.9489C66.3631 15.9489 67.0011 15.9233 67.4094 15.8978V18.5559C67.0266 18.6326 66.3886 18.6837 65.572 18.6837C63.1221 18.6837 61.2336 17.4824 61.2591 14.8754V7.13099H59.2686V4.6262H61.2591V1.30351H64.5002V4.6262H67.2308Z" fill="black"/>
<path d="M77.1264 8.58786C76.9222 7.53994 76.0546 6.8754 74.6765 6.8754C73.2729 6.8754 72.2521 7.5655 72.2776 8.51118C72.2521 9.22684 72.839 9.76358 74.2426 10.0958L76.5905 10.5815C79.219 11.1693 80.4695 12.3706 80.495 14.3642C80.4695 16.9712 78.1982 18.7859 74.5744 18.7859C71.0526 18.7859 68.96 17.2013 68.6283 14.5431H71.9458C72.15 15.7188 73.0687 16.3067 74.5744 16.3067C76.1311 16.3067 77.1774 15.6677 77.1774 14.6454C77.1774 13.853 76.5394 13.3419 75.1614 13.0351L72.9411 12.5495C70.3636 12.0383 69.0366 10.6837 69.0366 8.6901C69.0366 6.13419 71.2313 4.44728 74.6254 4.44728C77.943 4.44728 79.9846 6.05751 80.2143 8.58786H77.1264Z" fill="black"/>
<path d="M82.0711 14.5942C82.0711 11.476 84.6487 10.5559 87.2262 10.4026C88.1832 10.3387 90.1737 10.2236 90.7734 10.1981V9.09904C90.7734 7.71885 89.8802 6.92652 88.2725 6.92652C86.8178 6.92652 85.9246 7.59105 85.6694 8.58786H82.5305C82.7602 6.23642 84.8783 4.44728 88.349 4.44728C90.9776 4.44728 94.0145 5.52077 94.0145 9.22684V18.5048H90.901V16.5879H90.799C90.1865 17.7636 88.885 18.7859 86.7158 18.7859C84.0617 18.7859 82.0711 17.3291 82.0711 14.5942ZM85.2101 14.5687C85.2101 15.77 86.1798 16.3834 87.5579 16.3834C89.523 16.3834 90.799 15.0799 90.799 13.5208V12.3706L87.7366 12.5751C86.1798 12.7029 85.2101 13.3419 85.2101 14.5687Z" fill="black"/>
<path d="M100.082 0V18.5048H96.8155V0H100.082Z" fill="black"/>
<path d="M108.982 24C105.308 24 102.985 22.3642 102.756 19.7572H105.997C106.226 20.9585 107.375 21.5463 109.033 21.5463C110.973 21.5463 112.249 20.7029 112.249 18.6581V16H112.096C111.585 17.0224 110.488 18.3003 108.089 18.3003C104.899 18.3003 102.373 15.9744 102.373 11.4505C102.373 6.8754 104.899 4.44728 108.115 4.44728C110.565 4.44728 111.585 5.90415 112.096 6.90096H112.249V4.6262H115.464V18.7348C115.464 22.2875 112.734 24 108.982 24ZM108.982 15.7444C111.075 15.7444 112.274 14.1597 112.274 11.5016C112.274 8.86901 111.101 7.10543 108.982 7.10543C106.813 7.10543 105.69 8.97125 105.69 11.5016C105.69 14.0575 106.839 15.7444 108.982 15.7444Z" fill="black"/>
<path d="M124.365 18.7859C120.333 18.7859 117.73 15.9233 117.73 11.6294C117.73 7.3099 120.333 4.44728 124.365 4.44728C128.422 4.44728 131 7.3099 131 11.6294C131 15.9233 128.422 18.7859 124.365 18.7859ZM124.39 16.1789C126.611 16.1789 127.708 14.1597 127.708 11.6038C127.708 9.07348 126.611 7.02875 124.39 7.02875C122.119 7.02875 121.022 9.07348 121.022 11.6038C121.022 14.1597 122.119 16.1789 124.39 16.1789Z" fill="black"/>
</svg>
