<svg width="135" height="24" viewBox="0 0 135 24" fill="none" xmlns="http://www.w3.org/2000/svg">
<path d="M18.4805 8.25684C18.6342 8.25685 18.7865 8.26439 18.9362 8.2797C18.9608 8.28221 18.9851 8.28625 19.0095 8.28916C19.1028 8.30028 19.1951 8.3149 19.2866 8.33174C19.3452 8.34256 19.4035 8.35411 19.4613 8.36722C19.7263 8.42718 19.9826 8.50965 20.2273 8.61479C20.2453 8.62255 20.2629 8.63124 20.2808 8.63923C20.4651 8.72136 20.6429 8.81516 20.813 8.9207C20.8205 8.92539 20.8275 8.93095 20.835 8.93568C22.0836 9.72123 22.9148 11.1116 22.9148 12.6973C22.9148 15.1495 20.9295 17.1374 18.4812 17.1378C18.062 17.1378 17.6565 17.078 17.2721 16.9691C17.2485 16.9624 17.2247 16.9565 17.2012 16.9494C17.1618 16.9375 17.1229 16.9245 17.0839 16.9116C17.0597 16.9035 17.0355 16.8956 17.0115 16.8871C16.9764 16.8748 16.9415 16.8617 16.9068 16.8485C16.8752 16.8364 16.8437 16.8242 16.8123 16.8114C16.7822 16.7992 16.7524 16.7865 16.7226 16.7736C16.6925 16.7605 16.6626 16.7471 16.6329 16.7334C16.6023 16.7193 16.5717 16.7055 16.5415 16.6908C16.428 16.6354 16.3172 16.5756 16.2093 16.511C16.1734 16.4895 16.1384 16.4665 16.1031 16.444C16.0816 16.4303 16.0598 16.4171 16.0385 16.403C16.0127 16.3859 15.9876 16.3678 15.9622 16.3502C15.9281 16.3266 15.894 16.303 15.8606 16.2784C15.8422 16.2649 15.8237 16.2513 15.8055 16.2374C15.7694 16.2101 15.7337 16.1823 15.6984 16.1539C15.6803 16.1392 15.662 16.1247 15.6441 16.1097C15.546 16.0278 15.4514 15.9418 15.3607 15.8519L15.3458 15.8369C15.3324 15.8235 15.3196 15.8095 15.3064 15.7959C15.2756 15.7642 15.245 15.7323 15.2151 15.6997C15.2004 15.6837 15.1863 15.6671 15.1718 15.6508C15.153 15.6297 15.1335 15.6092 15.1151 15.5878L15.06 15.5215C15.0553 15.5158 15.0506 15.51 15.0458 15.5042C15.0179 15.47 14.9909 15.4352 14.964 15.4001C14.9419 15.3714 14.92 15.3426 14.8986 15.3134C14.884 15.2933 14.8697 15.273 14.8553 15.2527C14.8361 15.2254 14.8165 15.1984 14.7979 15.1707C14.7233 15.0596 14.6537 14.9448 14.5893 14.8269C14.5789 14.808 14.5694 14.7885 14.5593 14.7694C14.5376 14.7281 14.5161 14.6868 14.4956 14.6448C14.4858 14.6247 14.4767 14.6043 14.4672 14.5841C14.449 14.5452 14.4309 14.5061 14.4137 14.4666C14.4026 14.441 14.3921 14.4152 14.3814 14.3893C14.3642 14.3476 14.3478 14.3055 14.3318 14.2632C14.3252 14.2455 14.3178 14.2281 14.3114 14.2104C14.2403 14.0138 14.1829 13.8108 14.1398 13.6025C14.1367 13.5878 14.134 13.573 14.1311 13.5583C14.1219 13.5115 14.1136 13.4645 14.1059 13.4172C14.1011 13.3876 14.096 13.3579 14.0917 13.3281C14.0625 13.122 14.0469 12.9115 14.0469 12.6973C14.0469 12.6206 14.0493 12.5444 14.0532 12.4687C14.0723 12.0903 14.1381 11.7243 14.246 11.3767C14.354 11.0291 14.5041 10.7002 14.6892 10.3951C14.8373 10.1509 15.0077 9.92181 15.1986 9.71151C15.3893 9.5013 15.6 9.30954 15.8275 9.1391C15.8845 9.09645 15.9425 9.05524 16.0015 9.01532C16.1196 8.93544 16.2418 8.8614 16.3676 8.79298C16.4303 8.75885 16.4936 8.72555 16.5581 8.69442C16.7519 8.60088 16.9536 8.52119 17.1619 8.45631C17.5784 8.32651 18.0213 8.25688 18.4805 8.25684Z" fill="black"/>
<path d="M4.29871 11.5012L0.218446 4.42145C-0.401963 3.34508 0.372922 2.00028 1.61375 2H9.78522L4.29871 11.5012Z" fill="#00BC7D"/>
<path d="M23.255 2C24.4961 2 25.272 3.34496 24.6515 4.42145L22.9016 7.45615C21.7082 6.44527 20.1655 5.83501 18.4801 5.83497C14.6962 5.83534 11.6287 8.90747 11.6287 12.6974C11.6288 15.6703 13.5167 18.2009 16.157 19.1541L13.8303 23.1931C13.2096 24.2689 11.659 24.269 11.0385 23.1931L5.73291 13.9894L12.656 2H23.255Z" fill="url(#paint0_linear_59_287)"/>
<path d="M46.8701 15.9805C46.8701 16.6858 46.9793 17.1833 47.1963 17.4727C47.4314 17.7438 47.7839 17.8798 48.2539 17.8799C49.1583 17.8799 49.9367 17.3187 50.5879 16.1973V6.18555H54.874V20.5928H51.1572L50.9678 18.7744C49.9188 20.2937 48.4625 21.0536 46.5996 21.0537C45.2794 21.0537 44.2752 20.656 43.5879 19.8604C42.9187 19.0645 42.584 17.9514 42.584 16.5225V6.18555H46.8701V15.9805ZM62.9395 6.18555H66.249L65.7881 9.16992H62.9395V15.79C62.9395 16.4592 63.0476 16.9391 63.2646 17.2285C63.4817 17.5179 63.8257 17.6621 64.2959 17.6621C64.7843 17.6621 65.3001 17.5087 65.8428 17.2012L67.2803 19.9141C66.7558 20.2758 66.1409 20.5559 65.4355 20.7549C64.7484 20.9538 64.0612 21.0537 63.374 21.0537C60.2268 21.0356 58.6524 19.2993 58.6523 15.8447V9.16992H56.6182V6.18555H58.6523V3.06543L62.9395 2.57715V6.18555ZM73.7852 5.72461C74.8159 5.72463 75.7833 5.8782 76.6875 6.18555C77.5918 6.49301 78.3879 6.92763 79.0752 7.48828L77.502 9.90332C76.3263 9.16173 75.141 8.79004 73.9473 8.79004C73.3868 8.79009 72.9529 8.89 72.6455 9.08887C72.3561 9.26974 72.2109 9.53231 72.2109 9.87598C72.211 10.1471 72.2749 10.3729 72.4014 10.5537C72.546 10.7165 72.8263 10.8885 73.2422 11.0693C73.6582 11.2502 74.3007 11.4675 75.1689 11.7207C76.67 12.1548 77.7824 12.7244 78.5059 13.4297C79.2474 14.117 79.6181 15.0758 79.6182 16.3057C79.6182 17.2824 79.3381 18.1329 78.7773 18.8564C78.2166 19.5618 77.4474 20.1045 76.4707 20.4844C75.4941 20.8641 74.4085 21.0537 73.2148 21.0537C72.0033 21.0537 70.8731 20.8641 69.8242 20.4844C68.7933 20.1045 67.9159 19.5794 67.1924 18.9102L69.2812 16.5771C70.493 17.5176 71.7681 17.9882 73.1064 17.9883C73.7575 17.9883 74.2642 17.8708 74.626 17.6357C75.0057 17.4007 75.1952 17.0657 75.1953 16.6318C75.1953 16.2882 75.1232 16.0163 74.9785 15.8174C74.8338 15.6185 74.5536 15.4372 74.1377 15.2744C73.7217 15.0936 73.0614 14.8772 72.1572 14.624C70.7286 14.2081 69.6615 13.6291 68.9561 12.8877C68.2507 12.1462 67.8975 11.2234 67.8975 10.1201C67.8975 9.28826 68.1324 8.54656 68.6025 7.89551C69.0909 7.22627 69.7788 6.70113 70.665 6.32129C71.5694 5.92344 72.6096 5.72461 73.7852 5.72461ZM87.042 5.72461C89.104 5.72461 90.6146 6.14989 91.5732 7C92.5317 7.85009 93.0107 9.12516 93.0107 10.8252V16.4141C93.0107 16.9567 93.0838 17.3552 93.2285 17.6084C93.3912 17.8613 93.644 18.0512 93.9873 18.1777L93.0928 20.9727C92.2065 20.9003 91.4826 20.7098 90.9219 20.4023C90.3612 20.0768 89.9266 19.5701 89.6191 18.8828C88.6786 20.3298 87.2318 21.0537 85.2783 21.0537C83.8496 21.0537 82.7104 20.6376 81.8604 19.8057C81.0102 18.9736 80.585 17.8883 80.585 16.5498C80.585 14.9763 81.1637 13.7734 82.3213 12.9414C83.4789 12.1094 85.1523 11.6934 87.3408 11.6934H88.8057V11.0693C88.8056 10.2193 88.6244 9.64047 88.2627 9.33301C87.901 9.00763 87.2682 8.84478 86.3643 8.84473C85.894 8.84473 85.3235 8.91682 84.6543 9.06152C83.9852 9.18813 83.2981 9.3694 82.5928 9.60449L81.6162 6.7832C82.5204 6.43963 83.4425 6.17696 84.3828 5.99609C85.3414 5.81523 86.2281 5.72462 87.042 5.72461ZM100.312 16.7666C100.312 17.3634 100.556 17.662 101.044 17.6621C101.297 17.6621 101.533 17.6168 101.75 17.5264L102.591 20.5654C101.813 20.891 100.945 21.0537 99.9863 21.0537C98.7384 21.0537 97.7611 20.7014 97.0557 19.9961C96.3683 19.2726 96.0244 18.2501 96.0244 16.9297V0.460938L100.312 0V16.7666ZM112.436 1.3291C114.859 1.3291 116.949 2.09831 118.703 3.63574L116.451 5.99609C115.782 5.48966 115.158 5.12818 114.579 4.91113C114.018 4.67602 113.367 4.55764 112.626 4.55762C111.233 4.55762 110.121 5.10975 109.289 6.21289C108.457 7.29809 108.041 8.95313 108.041 11.1777C108.041 13.5833 108.357 15.2928 108.99 16.3057C109.623 17.3004 110.609 17.7978 111.947 17.7979C112.888 17.7979 113.738 17.5898 114.498 17.1738V12.9141H112.056L111.622 9.76758H118.812V19.0732C117.835 19.7063 116.759 20.1944 115.583 20.5381C114.407 20.8817 113.231 21.0537 112.056 21.0537C109.198 21.0536 107.046 20.2216 105.599 18.5576C104.152 16.8755 103.429 14.4153 103.429 11.1777C103.429 9.11595 103.817 7.34343 104.595 5.86035C105.391 4.37728 106.467 3.25577 107.823 2.49609C109.198 1.71838 110.735 1.32915 112.436 1.3291ZM127.942 5.72461C130.149 5.72465 131.876 6.40324 133.124 7.75977C134.372 9.09815 134.996 10.9789 134.996 13.4023C134.996 14.9398 134.707 16.2877 134.128 17.4453C133.567 18.5848 132.754 19.4714 131.687 20.1045C130.637 20.7375 129.389 21.0537 127.942 21.0537C125.754 21.0537 124.026 20.3844 122.76 19.0459C121.512 17.6894 120.888 15.7994 120.888 13.376C120.888 11.8385 121.169 10.4999 121.729 9.36035C122.308 8.20278 123.122 7.30688 124.171 6.67383C125.238 6.04082 126.495 5.72461 127.942 5.72461ZM30.5605 14.0859C32.4068 14.2472 33.8564 14.6248 35.0098 15.1055V20.5928H30.5605V14.0859ZM87.7471 14.0537C86.7706 14.0538 86.0381 14.2257 85.5498 14.5693C85.0796 14.913 84.8448 15.4466 84.8447 16.1699C84.8447 16.7485 84.9891 17.2008 85.2783 17.5264C85.5858 17.8338 86.002 17.9882 86.5264 17.9883C87.503 17.9883 88.263 17.5268 88.8057 16.6045V14.0537H87.7471ZM127.942 8.87207C127.074 8.87207 126.422 9.24279 125.988 9.98438C125.554 10.7079 125.338 11.8387 125.338 13.376C125.338 14.9494 125.546 16.0978 125.962 16.8213C126.396 17.5447 127.056 17.9062 127.942 17.9062C128.81 17.9062 129.461 17.5447 129.896 16.8213C130.33 16.0797 130.547 14.9398 130.547 13.4023C130.547 11.829 130.33 10.6805 129.896 9.95703C129.48 9.23368 128.829 8.87212 127.942 8.87207ZM41.3037 4.96484H35.0098V9.95703H40.4902V13H25C26.5608 12.3215 29.0741 11.3242 30.5605 9.68164V1.79102H41.7656L41.3037 4.96484Z" fill="black"/>
<defs>
<linearGradient id="paint0_linear_59_287" x1="3.73042" y1="5.73054" x2="15.3014" y2="24" gradientUnits="userSpaceOnUse">
<stop stop-color="#00BC7D"/>
<stop offset="1" stop-color="#4F39F6"/>
</linearGradient>
</defs>
</svg>
