<svg width="131" height="24" viewBox="0 0 131 24" fill="none" xmlns="http://www.w3.org/2000/svg">
<path d="M24.3118 0C25.6092 -1.13603e-07 26.4204 1.40674 25.7717 2.53212L23.9423 5.70469C22.6947 4.64787 21.0824 4.00924 19.3205 4.00919C15.3644 4.00927 12.1573 7.22131 12.1573 11.1835C12.1573 14.2919 14.1312 16.9378 16.8919 17.9342L14.4592 22.1561C13.8103 23.2812 12.1888 23.2814 11.5401 22.1561L0.228315 2.53212C-0.420289 1.40684 0.390208 0.000242597 1.68745 0H24.3118Z" fill="black"/>
<path d="M19.3205 6.54131C19.4812 6.54133 19.6404 6.54921 19.797 6.56522C19.8226 6.56784 19.848 6.57206 19.8735 6.57511C19.9711 6.58673 20.0675 6.60202 20.1632 6.61962C20.2245 6.63093 20.2854 6.643 20.3459 6.65671C20.6229 6.71939 20.8908 6.80561 21.1466 6.91553C21.1655 6.92364 21.1839 6.93272 21.2026 6.94108C21.3953 7.02694 21.5812 7.125 21.7589 7.23534C21.7668 7.24024 21.7741 7.24605 21.782 7.251C23.0873 8.07223 23.9563 9.52578 23.9563 11.1835C23.9563 13.7471 21.8807 15.8253 19.3213 15.8258C18.883 15.8258 18.459 15.7632 18.0572 15.6494C18.0325 15.6424 18.0076 15.6361 17.9831 15.6288C17.9419 15.6163 17.9012 15.6027 17.8605 15.5892C17.8352 15.5808 17.8099 15.5725 17.7848 15.5636C17.748 15.5507 17.7116 15.5371 17.6753 15.5233C17.6422 15.5107 17.6093 15.4978 17.5766 15.4845C17.5451 15.4717 17.5139 15.4584 17.4828 15.445C17.4513 15.4313 17.4201 15.4172 17.3889 15.4029C17.357 15.3882 17.325 15.3738 17.2935 15.3584C17.1748 15.3005 17.0589 15.2379 16.9462 15.1705C16.9086 15.148 16.872 15.124 16.8351 15.1004C16.8126 15.0861 16.7898 15.0723 16.7676 15.0576C16.7406 15.0397 16.7144 15.0208 16.6878 15.0023C16.6521 14.9776 16.6165 14.953 16.5816 14.9273C16.5623 14.9131 16.5431 14.8989 16.524 14.8845C16.4863 14.8558 16.4489 14.8268 16.4121 14.7971C16.3931 14.7817 16.374 14.7666 16.3553 14.7509C16.2527 14.6653 16.1538 14.5754 16.059 14.4814L16.0434 14.4657C16.0294 14.4517 16.016 14.4371 16.0022 14.4229C15.97 14.3898 15.938 14.3564 15.9068 14.3223C15.8914 14.3055 15.8766 14.2882 15.8615 14.2712C15.8418 14.2491 15.8215 14.2277 15.8022 14.2053L15.7446 14.136C15.7397 14.13 15.7348 14.1239 15.7298 14.1179C15.7007 14.0821 15.6723 14.0457 15.6442 14.0091C15.6212 13.9791 15.5982 13.949 15.5759 13.9184C15.5606 13.8974 15.5456 13.8762 15.5307 13.855C15.5106 13.8264 15.49 13.7982 15.4706 13.7692C15.3926 13.6531 15.3199 13.5331 15.2525 13.4099C15.2417 13.39 15.2318 13.3697 15.2212 13.3497C15.1985 13.3066 15.176 13.2633 15.1546 13.2195C15.1443 13.1985 15.1349 13.1771 15.1249 13.156C15.1058 13.1153 15.0869 13.0745 15.069 13.0332C15.0574 13.0064 15.0464 12.9794 15.0352 12.9524C15.0173 12.9088 15.0001 12.8648 14.9834 12.8205C14.9764 12.802 14.9687 12.7839 14.962 12.7653C14.8876 12.5598 14.8276 12.3476 14.7826 12.1298C14.7794 12.1144 14.7766 12.099 14.7735 12.0836C14.7639 12.0347 14.7552 11.9855 14.7472 11.9361C14.7422 11.9051 14.7368 11.8741 14.7324 11.8429C14.7018 11.6275 14.6855 11.4074 14.6855 11.1835C14.6855 11.1034 14.688 11.0237 14.6921 10.9445C14.7121 10.5489 14.7808 10.1663 14.8937 9.8029C15.0065 9.43955 15.1635 9.0957 15.357 8.7767C15.5118 8.52146 15.69 8.28192 15.8895 8.06207C16.0889 7.84231 16.3092 7.64184 16.547 7.46366C16.6065 7.41907 16.6672 7.37599 16.7289 7.33425C16.8523 7.25074 16.9801 7.17334 17.1116 7.10181C17.1772 7.06614 17.2433 7.03132 17.3108 6.99878C17.5134 6.90098 17.7243 6.81768 17.942 6.74985C18.3774 6.61416 18.8405 6.54136 19.3205 6.54131Z" fill="black"/>
<path d="M30 18.5048V0H42.1373V3.16933H33.8168V7.66773H41.3485V10.8371H33.8168V18.5048H30Z" fill="black"/>
<path d="M52.3093 12.6006V4.6262H56.0752V18.5048H52.462V16H52.3093C51.6732 17.6102 50.1974 18.6837 48.1109 18.6837C45.3373 18.6837 43.4544 16.7157 43.4544 13.4696V4.6262H47.2203V12.8051C47.2203 14.4409 48.1617 15.4888 49.6376 15.4888C51.0116 15.4888 52.3093 14.492 52.3093 12.6006Z" fill="black"/>
<path d="M66.0181 4.6262V7.46326H63.4227V14.2364C63.4227 15.3355 63.9571 15.6166 64.7204 15.6422C65.1021 15.6422 65.7637 15.6166 66.2217 15.5655V18.5559C65.8146 18.6326 65.153 18.6837 64.2115 18.6837C61.4889 18.6837 59.6314 17.4569 59.6568 14.7732V7.46326H57.7485V4.6262H59.6568V1.30351H63.4227V4.6262H66.0181Z" fill="black"/>
<path d="M75.8084 8.74121C75.6557 7.76997 74.7906 7.13099 73.5438 7.13099C72.3224 7.13099 71.381 7.71885 71.4064 8.5623C71.381 9.17572 71.8899 9.66134 73.1876 9.94249L75.6557 10.4537C78.3275 11.016 79.6252 12.2173 79.6506 14.2109C79.6252 16.9457 77.1825 18.7859 73.5184 18.7859C69.7779 18.7859 67.5896 17.099 67.2843 14.3898H71.0756C71.2537 15.4888 72.1443 16.0511 73.5184 16.0511C74.8924 16.0511 75.8084 15.4888 75.8084 14.5942C75.8084 13.8786 75.2232 13.4441 73.9255 13.1629L71.6354 12.7029C69.0146 12.1917 67.6405 10.8115 67.666 8.76677C67.6405 6.10863 69.9306 4.44728 73.4929 4.44728C76.9789 4.44728 79.1417 6.10863 79.3453 8.74121H75.8084Z" fill="black"/>
<path d="M81.044 14.6198C81.044 11.5272 83.5376 10.5048 86.1839 10.3514C87.1763 10.2875 89.0338 10.1981 89.619 10.1725V9.04792C89.5936 7.89776 88.8048 7.20767 87.4053 7.20767C86.1331 7.20767 85.3188 7.79553 85.1152 8.74121H81.5275C81.7565 6.33866 83.843 4.44728 87.5071 4.44728C90.5096 4.44728 93.3595 5.80192 93.3595 9.15016V18.5048H89.7972V16.5879H89.6954C89.0084 17.8658 87.7107 18.7604 85.6496 18.7604C83.0033 18.7604 81.044 17.3802 81.044 14.6198ZM84.6572 14.5176C84.6572 15.5911 85.5224 16.1534 86.7183 16.1534C88.4231 16.1534 89.6445 15.0032 89.619 13.5463V12.524C89.0465 12.5495 87.4435 12.639 86.7946 12.7029C85.4969 12.8307 84.6572 13.4441 84.6572 14.5176Z" fill="black"/>
<path d="M99.7401 0V18.5048H95.9742V0H99.7401Z" fill="black"/>
<path d="M108.614 24C104.798 24 102.457 22.2875 102.228 19.655H105.943C106.146 20.754 107.189 21.2652 108.691 21.2652C110.446 21.2652 111.617 20.524 111.617 18.5815V16.0511H111.439C110.93 17.1757 109.709 18.3003 107.495 18.3003C104.365 18.3003 101.871 16.1022 101.871 11.476C101.871 6.77316 104.441 4.44728 107.495 4.44728C109.81 4.44728 110.93 5.82748 111.439 6.95208H111.591V4.6262H115.332V18.6581C115.332 22.1853 112.533 24 108.614 24ZM108.665 15.4633C110.548 15.4633 111.617 13.9808 111.617 11.5272C111.617 9.04792 110.548 7.46326 108.665 7.46326C106.757 7.46326 105.739 9.1246 105.739 11.5272C105.739 13.9297 106.757 15.4633 108.665 15.4633Z" fill="black"/>
<path d="M124.206 18.7859C120.033 18.7859 117.438 15.8978 117.438 11.6038C117.438 7.3099 120.033 4.44728 124.206 4.44728C128.379 4.44728 131 7.3099 131 11.6038C131 15.8978 128.379 18.7859 124.206 18.7859ZM124.232 15.8466C126.165 15.8466 127.158 14.0319 127.158 11.6038C127.158 9.15016 126.165 7.33546 124.232 7.33546C122.272 7.33546 121.255 9.15016 121.255 11.6038C121.255 14.0319 122.272 15.8466 124.232 15.8466Z" fill="black"/>
</svg>
