<svg width="115" height="23" viewBox="0 0 115 23" fill="none" xmlns="http://www.w3.org/2000/svg">
<path d="M19.3205 6.5415C19.4813 6.54152 19.6405 6.5494 19.797 6.56541C19.8227 6.56803 19.8481 6.57225 19.8736 6.5753C19.9712 6.58692 20.0676 6.60221 20.1633 6.61981C20.2246 6.63112 20.2855 6.64319 20.346 6.6569C20.623 6.71958 20.8909 6.8058 21.1467 6.91572C21.1655 6.92383 21.184 6.93291 21.2027 6.94127C21.3953 7.02713 21.5813 7.12519 21.759 7.23553C21.7669 7.24043 21.7742 7.24624 21.782 7.25119C23.0874 8.07242 23.9563 9.52597 23.9563 11.1837C23.9563 13.7473 21.8808 15.8255 19.3214 15.8259C18.8831 15.8259 18.4591 15.7634 18.0573 15.6496C18.0326 15.6426 18.0077 15.6363 17.9832 15.629C17.942 15.6165 17.9013 15.6029 17.8606 15.5894C17.8353 15.581 17.81 15.5727 17.7849 15.5638C17.7481 15.5509 17.7117 15.5373 17.6754 15.5234C17.6423 15.5109 17.6094 15.498 17.5766 15.4847C17.5452 15.4719 17.514 15.4586 17.4828 15.4451C17.4513 15.4315 17.4201 15.4174 17.389 15.4031C17.3571 15.3884 17.3251 15.374 17.2935 15.3586C17.1749 15.3007 17.059 15.2381 16.9463 15.1707C16.9087 15.1482 16.872 15.1241 16.8352 15.1006C16.8127 15.0863 16.7899 15.0725 16.7677 15.0577C16.7407 15.0399 16.7144 15.0209 16.6878 15.0025C16.6522 14.9778 16.6166 14.9532 16.5817 14.9275C16.5624 14.9133 16.5431 14.8991 16.5241 14.8846C16.4863 14.856 16.4489 14.827 16.4121 14.7973C16.3932 14.7819 16.3741 14.7667 16.3554 14.7511C16.2528 14.6655 16.1539 14.5756 16.0591 14.4816L16.0435 14.4659C16.0295 14.4519 16.0161 14.4373 16.0023 14.4231C15.9701 14.3899 15.9381 14.3566 15.9068 14.3225C15.8915 14.3057 15.8767 14.2884 15.8616 14.2714C15.8419 14.2493 15.8216 14.2279 15.8023 14.2055L15.7447 14.1362C15.7397 14.1302 15.7348 14.1241 15.7299 14.1181C15.7007 14.0823 15.6724 14.0459 15.6443 14.0093C15.6213 13.9793 15.5983 13.9492 15.576 13.9186C15.5607 13.8976 15.5457 13.8764 15.5307 13.8551C15.5107 13.8266 15.4901 13.7984 15.4707 13.7694C15.3927 13.6533 15.32 13.5333 15.2526 13.41C15.2417 13.3902 15.2319 13.3699 15.2213 13.3499C15.1986 13.3068 15.1761 13.2635 15.1546 13.2196C15.1444 13.1987 15.1349 13.1773 15.125 13.1562C15.1059 13.1155 15.087 13.0747 15.0691 13.0334C15.0574 13.0066 15.0464 12.9796 15.0353 12.9526C15.0173 12.909 15.0001 12.865 14.9835 12.8207C14.9765 12.8022 14.9688 12.7841 14.9621 12.7655C14.8877 12.56 14.8277 12.3478 14.7827 12.13C14.7795 12.1146 14.7766 12.0992 14.7736 12.0838C14.764 12.0349 14.7553 11.9857 14.7473 11.9363C14.7422 11.9053 14.7369 11.8743 14.7325 11.8431C14.7019 11.6277 14.6855 11.4076 14.6855 11.1837C14.6855 11.1036 14.6881 11.0239 14.6921 10.9447C14.7122 10.5491 14.7809 10.1665 14.8938 9.80309C15.0066 9.43974 15.1636 9.09589 15.3571 8.77689C15.5119 8.52165 15.6901 8.28211 15.8896 8.06226C16.089 7.8425 16.3093 7.64203 16.5471 7.46385C16.6066 7.41926 16.6673 7.37618 16.729 7.33444C16.8524 7.25093 16.9802 7.17353 17.1117 7.102C17.1772 7.06633 17.2434 7.03151 17.3108 6.99897C17.5134 6.90117 17.7244 6.81787 17.942 6.75004C18.3775 6.61435 18.8405 6.54155 19.3205 6.5415Z" fill="#4F39F6"/>
<path d="M24.3118 0C25.6092 -1.13604e-07 26.4204 1.40674 25.7717 2.53212L23.9423 5.70469C22.6947 4.64787 21.0824 4.00924 19.3205 4.00919C15.3644 4.00927 12.1573 7.22131 12.1573 11.1835C12.1573 14.2919 14.1312 16.9378 16.8919 17.9342L14.4592 22.1561C13.8103 23.2812 12.1888 23.2814 11.5401 22.1561L0.228315 2.53212C-0.420289 1.40684 0.390208 0.000242597 1.68745 0H24.3118Z" fill="url(#paint0_linear_29_40)"/>
<path d="M30 18.4207V3H40.2146V5.64111H33.2121V9.38978H39.5508V12.0309H33.2121V18.4207H30Z" fill="black"/>
<path d="M48.7752 13.5005V6.85517H51.9445V18.4207H48.9036V16.3333H48.7752C48.2398 17.6752 46.9978 18.5698 45.2418 18.5698C42.9077 18.5698 41.323 16.9297 41.323 14.2247V6.85517H44.4923V13.6709C44.4923 15.0341 45.2846 15.9073 46.5267 15.9073C47.683 15.9073 48.7752 15.0767 48.7752 13.5005Z" fill="black"/>
<path d="M60.3123 6.85517V9.21938H58.128V14.8637C58.128 15.7796 58.5777 16.0138 59.2202 16.0351C59.5414 16.0351 60.0982 16.0138 60.4836 15.9712V18.4633C60.141 18.5272 59.5842 18.5698 58.7919 18.5698C56.5006 18.5698 54.9373 17.5474 54.9587 15.311V9.21938H53.3527V6.85517H54.9587V4.08626H58.128V6.85517H60.3123Z" fill="black"/>
<path d="M68.5516 10.2843C68.4232 9.47497 67.6951 8.94249 66.6458 8.94249C65.6179 8.94249 64.8256 9.43238 64.847 10.1353C64.8256 10.6464 65.2538 11.0511 66.346 11.2854L68.4232 11.7114C70.6717 12.18 71.7638 13.181 71.7852 14.8424C71.7638 17.1214 69.708 18.655 66.6244 18.655C63.4765 18.655 61.6348 17.2492 61.3779 14.9915H64.5686C64.7185 15.9073 65.468 16.3759 66.6244 16.3759C67.7807 16.3759 68.5516 15.9073 68.5516 15.1619C68.5516 14.5655 68.0591 14.2034 66.967 13.9691L65.0397 13.5857C62.834 13.1597 61.6777 12.0096 61.6991 10.3056C61.6777 8.09052 63.6049 6.70607 66.6029 6.70607C69.5367 6.70607 71.3569 8.09052 71.5282 10.2843H68.5516Z" fill="black"/>
<path d="M72.9578 15.1832C72.9578 12.606 75.0564 11.754 77.2835 11.6262C78.1187 11.573 79.6819 11.4984 80.1744 11.4771V10.5399C80.153 9.58147 79.4892 9.00639 78.3114 9.00639C77.2407 9.00639 76.5554 9.49627 76.3841 10.2843H73.3647C73.5574 8.28222 75.3134 6.70607 78.3971 6.70607C80.9239 6.70607 83.3223 7.83493 83.3223 10.6251V18.4207H80.3243V16.8232H80.2387C79.6605 17.8882 78.5684 18.6337 76.8338 18.6337C74.6067 18.6337 72.9578 17.4835 72.9578 15.1832ZM75.9987 15.098C75.9987 15.9925 76.7267 16.4611 77.7332 16.4611C79.168 16.4611 80.1959 15.5027 80.1744 14.2886V13.4366C79.6926 13.4579 78.3435 13.5325 77.7975 13.5857C76.7053 13.6922 75.9987 14.2034 75.9987 15.098Z" fill="black"/>
<path d="M88.6922 3V18.4207H85.5229V3H88.6922Z" fill="black"/>
<path d="M96.1606 23C92.9485 23 90.9784 21.573 90.7856 19.3791H93.9121C94.0834 20.295 94.9614 20.721 96.2248 20.721C97.7024 20.721 98.6875 20.1033 98.6875 18.4846V16.3759H98.5376C98.1093 17.3131 97.0814 18.2503 95.2184 18.2503C92.5844 18.2503 90.4858 16.4185 90.4858 12.5634C90.4858 8.6443 92.6487 6.70607 95.2184 6.70607C97.1671 6.70607 98.1093 7.85623 98.5376 8.7934H98.6661V6.85517H101.814V18.5485C101.814 21.4878 99.4584 23 96.1606 23ZM96.2034 15.886C97.7881 15.886 98.6875 14.6507 98.6875 12.606C98.6875 10.5399 97.7881 9.21938 96.2034 9.21938C94.5974 9.21938 93.7408 10.6038 93.7408 12.606C93.7408 14.6081 94.5974 15.886 96.2034 15.886Z" fill="black"/>
<path d="M109.282 18.655C105.77 18.655 103.586 16.2481 103.586 12.6699C103.586 9.09159 105.77 6.70607 109.282 6.70607C112.794 6.70607 115 9.09159 115 12.6699C115 16.2481 112.794 18.655 109.282 18.655ZM109.304 16.2055C110.931 16.2055 111.766 14.6933 111.766 12.6699C111.766 10.6251 110.931 9.11289 109.304 9.11289C107.655 9.11289 106.798 10.6251 106.798 12.6699C106.798 14.6933 107.655 16.2055 109.304 16.2055Z" fill="black"/>
<defs>
<linearGradient id="paint0_linear_29_40" x1="-3" y1="-3.31912e-07" x2="22.5" y2="12" gradientUnits="userSpaceOnUse">
<stop stop-color="#00BC7D"/>
<stop offset="1" stop-color="#009966"/>
</linearGradient>
</defs>
</svg>
