<svg width="138" height="24" viewBox="0 0 138 24" fill="none" xmlns="http://www.w3.org/2000/svg">
<path d="M32.9639 21.7054V2.90345H44.169L43.7078 6.0778H37.4134V11.0699H42.8939V14.2443H37.4134V21.7054H32.9639Z" fill="black"/>
<path d="M57.2781 21.7054H53.5611L53.3712 19.8876C52.3221 21.4069 50.8661 22.1666 49.003 22.1666C47.6827 22.1666 46.6788 21.7687 45.9915 20.9728C45.3223 20.177 44.9876 19.0646 44.9876 17.6357V7.2987H49.2744V17.0931C49.2744 17.7985 49.3829 18.2959 49.5999 18.5853C49.8351 18.8566 50.1878 18.9922 50.6581 18.9922C51.5624 18.9922 52.3402 18.4315 52.9913 17.3101V7.2987H57.2781V21.7054Z" fill="black"/>
<path d="M69.6842 21.0271C69.1597 21.3888 68.5447 21.6692 67.8393 21.8681C67.152 22.0671 66.4646 22.1666 65.7773 22.1666C62.6301 22.1485 61.0565 20.4121 61.0565 16.9574V10.2831H59.0217V7.2987H61.0565V4.17862L65.3432 3.69025V7.2987H68.6532L68.192 10.2831H65.3432V16.9031C65.3432 17.5724 65.4517 18.0517 65.6688 18.3411C65.8858 18.6305 66.2295 18.7752 66.6998 18.7752C67.1881 18.7752 67.7036 18.6214 68.2463 18.314L69.6842 21.0271Z" fill="black"/>
<path d="M76.1887 6.83747C77.2197 6.83747 78.1874 6.99121 79.0917 7.2987C79.9961 7.60619 80.7919 8.04029 81.4793 8.601L79.9057 11.0157C78.73 10.2741 77.5453 9.90329 76.3515 9.90329C75.7908 9.90329 75.3567 10.0028 75.0492 10.2017C74.7598 10.3826 74.6151 10.6449 74.6151 10.9885C74.6151 11.2599 74.6784 11.4859 74.805 11.6668C74.9497 11.8296 75.2301 12.0014 75.6461 12.1823C76.0621 12.3632 76.7042 12.5802 77.5724 12.8335C79.0736 13.2676 80.186 13.8373 80.9095 14.5427C81.6511 15.23 82.0219 16.1887 82.0219 17.4186C82.0219 18.3953 81.7415 19.2455 81.1808 19.969C80.6201 20.6744 79.8514 21.217 78.8747 21.5968C77.898 21.9767 76.8127 22.1666 75.6189 22.1666C74.4071 22.1666 73.2766 21.9767 72.2275 21.5968C71.1966 21.217 70.3193 20.6925 69.5958 20.0232L71.6849 17.6899C72.8968 18.6305 74.1719 19.1008 75.5104 19.1008C76.1616 19.1008 76.668 18.9832 77.0298 18.7481C77.4096 18.5129 77.5995 18.1783 77.5995 17.7442C77.5995 17.4005 77.5272 17.1292 77.3825 16.9303C77.2378 16.7313 76.9574 16.5504 76.5414 16.3876C76.1254 16.2068 75.4652 15.9897 74.5608 15.7365C73.1319 15.3205 72.0648 14.7417 71.3593 14.0001C70.6539 13.2585 70.3012 12.3361 70.3012 11.2327C70.3012 10.4007 70.5364 9.65911 71.0066 9.00796C71.495 8.33873 72.1823 7.81419 73.0686 7.43436C73.973 7.03643 75.013 6.83747 76.1887 6.83747Z" fill="black"/>
<path d="M95.4147 17.5272C95.4147 18.0698 95.4871 18.4677 95.6318 18.7209C95.7946 18.9741 96.0478 19.1641 96.3915 19.2907L95.4961 22.0852C94.6098 22.0128 93.8863 21.8229 93.3256 21.5154C92.7649 21.1899 92.3308 20.6834 92.0233 19.9961C91.0828 21.4431 89.6358 22.1666 87.6823 22.1666C86.2534 22.1666 85.1139 21.7506 84.2638 20.9185C83.4137 20.0865 82.9887 19.0013 82.9887 17.6628C82.9887 16.0892 83.5674 14.8864 84.725 14.0544C85.8826 13.2223 87.5557 12.8063 89.7443 12.8063H91.2094V12.1823C91.2094 11.3322 91.0285 10.7534 90.6668 10.4459C90.305 10.1203 89.672 9.95755 88.7676 9.95755C88.2973 9.95755 87.7276 10.0299 87.0583 10.1746C86.3891 10.3012 85.7018 10.4821 84.9964 10.7172L84.0196 7.89559C84.924 7.55192 85.8465 7.28966 86.787 7.10878C87.7456 6.92791 88.6319 6.83747 89.4459 6.83747C91.5078 6.83747 93.0181 7.26252 93.9768 8.11263C94.9354 8.96274 95.4147 10.2379 95.4147 11.9381V17.5272ZM88.9304 19.1008C89.9071 19.1008 90.6668 18.6395 91.2094 17.7171V15.1667H90.1513C89.1746 15.1667 88.442 15.3386 87.9537 15.6822C87.4834 16.0259 87.2482 16.5595 87.2482 17.283C87.2482 17.8618 87.3929 18.314 87.6823 18.6395C87.9898 18.947 88.4058 19.1008 88.9304 19.1008Z" fill="black"/>
<path d="M102.39 22.1666C101.142 22.1666 100.165 21.8139 99.4596 21.1085C98.7723 20.385 98.4286 19.363 98.4286 18.0426V1.57402L102.715 1.11279V17.8799C102.715 18.4767 102.96 18.7752 103.448 18.7752C103.701 18.7752 103.936 18.73 104.153 18.6395L104.994 21.6782C104.217 22.0038 103.348 22.1666 102.39 22.1666Z" fill="black"/>
<path d="M114.84 2.44222C117.263 2.44222 119.352 3.21094 121.107 4.74837L118.855 7.10878C118.186 6.60233 117.562 6.24058 116.983 6.02354C116.422 5.7884 115.771 5.67083 115.029 5.67083C113.637 5.67083 112.524 6.2225 111.692 7.32583C110.86 8.41108 110.444 10.0661 110.444 12.2908C110.444 14.6965 110.761 16.4057 111.394 17.4186C112.027 18.4134 113.013 18.9108 114.351 18.9108C115.292 18.9108 116.142 18.7028 116.902 18.2868V14.0272H114.46L114.026 10.88H121.215V20.186C120.239 20.8191 119.162 21.3074 117.987 21.6511C116.811 21.9947 115.635 22.1666 114.46 22.1666C111.602 22.1666 109.45 21.3346 108.003 19.6705C106.556 17.9884 105.832 15.5285 105.832 12.2908C105.832 10.2289 106.221 8.4563 106.999 6.97313C107.795 5.48996 108.871 4.36853 110.227 3.60886C111.602 2.8311 113.139 2.44222 114.84 2.44222Z" fill="black"/>
<path d="M130.346 6.83747C132.553 6.83747 134.28 7.51575 135.528 8.87231C136.776 10.2108 137.4 12.0919 137.4 14.5156C137.4 16.053 137.111 17.4005 136.532 18.5581C135.971 19.6976 135.157 20.5839 134.09 21.217C133.041 21.8501 131.793 22.1666 130.346 22.1666C128.157 22.1666 126.43 21.4973 125.164 20.1589C123.916 18.8023 123.292 16.9122 123.292 14.4885C123.292 12.951 123.572 11.6126 124.133 10.473C124.712 9.31545 125.526 8.42012 126.575 7.78706C127.642 7.154 128.899 6.83747 130.346 6.83747ZM130.346 9.98469C129.478 9.98469 128.827 10.3555 128.392 11.0971C127.958 11.8206 127.741 12.951 127.741 14.4885C127.741 16.0621 127.949 17.2106 128.365 17.9341C128.799 18.6576 129.46 19.0194 130.346 19.0194C131.214 19.0194 131.865 18.6576 132.299 17.9341C132.733 17.1925 132.95 16.053 132.95 14.5156C132.95 12.942 132.733 11.7934 132.299 11.0699C131.883 10.3464 131.232 9.98469 130.346 9.98469Z" fill="black"/>
<path d="M20.1613 6.82568C20.3291 6.8257 20.4952 6.83392 20.6586 6.85063C20.6853 6.85337 20.7118 6.85777 20.7384 6.86095C20.8403 6.87308 20.9409 6.88903 21.0407 6.90739C21.1047 6.9192 21.1683 6.9318 21.2314 6.9461C21.5205 7.01151 21.8001 7.10148 22.067 7.21618C22.0866 7.22464 22.1058 7.23412 22.1254 7.24284C22.3264 7.33244 22.5204 7.43477 22.7059 7.5499C22.7141 7.55502 22.7217 7.56108 22.7299 7.56625C24.0921 8.4232 24.9988 9.93999 24.9988 11.6699C24.9988 14.345 22.833 16.5136 20.1622 16.5141C19.7049 16.5141 19.2625 16.4488 18.8431 16.33C18.8174 16.3227 18.7914 16.3162 18.7658 16.3085C18.7228 16.2955 18.6803 16.2813 18.6379 16.2672C18.6115 16.2584 18.5851 16.2498 18.5589 16.2405C18.5205 16.2271 18.4825 16.2128 18.4446 16.1984C18.4101 16.1853 18.3757 16.1719 18.3416 16.158C18.3087 16.1446 18.2762 16.1308 18.2437 16.1167C18.2108 16.1025 18.1783 16.0878 18.1458 16.0728C18.1125 16.0575 18.0791 16.0424 18.0462 16.0264C17.9224 15.966 17.8014 15.9007 17.6838 15.8303C17.6445 15.8068 17.6063 15.7817 17.5678 15.7572C17.5444 15.7422 17.5206 15.7278 17.4974 15.7124C17.4692 15.6938 17.4419 15.674 17.4141 15.6548C17.3769 15.629 17.3398 15.6033 17.3033 15.5765C17.2832 15.5617 17.2631 15.5469 17.2432 15.5318C17.2039 15.5019 17.1648 15.4717 17.1264 15.4406C17.1066 15.4246 17.0867 15.4088 17.0672 15.3925C16.9601 15.3031 16.8569 15.2093 16.758 15.1112L16.7417 15.0949C16.7271 15.0802 16.7132 15.065 16.6988 15.0501C16.6651 15.0156 16.6317 14.9808 16.5991 14.9452C16.5831 14.9277 16.5677 14.9096 16.5519 14.8919C16.5314 14.8689 16.5101 14.8465 16.4901 14.8231L16.43 14.7508C16.4248 14.7445 16.4196 14.7382 16.4145 14.7319C16.3841 14.6946 16.3545 14.6566 16.3252 14.6184C16.3011 14.587 16.2772 14.5557 16.2539 14.5237C16.2379 14.5018 16.2223 14.4797 16.2067 14.4575C16.1857 14.4278 16.1643 14.3983 16.144 14.3681C16.0626 14.2469 15.9867 14.1217 15.9164 13.9931C15.9051 13.9724 15.8948 13.9511 15.8838 13.9303C15.86 13.8853 15.8366 13.8402 15.8142 13.7944C15.8035 13.7725 15.7937 13.7502 15.7833 13.7281C15.7634 13.6857 15.7436 13.6431 15.7249 13.6C15.7128 13.5721 15.7013 13.5439 15.6897 13.5157C15.6709 13.4702 15.653 13.4243 15.6356 13.3781C15.6283 13.3588 15.6203 13.3398 15.6133 13.3204C15.5357 13.106 15.473 12.8846 15.426 12.6573C15.4227 12.6413 15.4197 12.6252 15.4166 12.6091C15.4066 12.5581 15.3975 12.5068 15.3891 12.4552C15.3839 12.4228 15.3783 12.3905 15.3737 12.358C15.3417 12.1332 15.3247 11.9035 15.3247 11.6699C15.3247 11.5862 15.3274 11.5031 15.3316 11.4204C15.3525 11.0077 15.4242 10.6083 15.542 10.2292C15.6597 9.85002 15.8235 9.4912 16.0255 9.15833C16.187 8.89198 16.3729 8.64202 16.5811 8.4126C16.7892 8.18328 17.0191 7.97409 17.2673 7.78816C17.3294 7.74163 17.3927 7.69667 17.4571 7.65312C17.5858 7.56598 17.7192 7.4852 17.8564 7.41056C17.9248 7.37334 17.9938 7.33701 18.0642 7.30305C18.2756 7.201 18.4957 7.11407 18.7229 7.04329C19.1773 6.90169 19.6605 6.82573 20.1613 6.82568Z" fill="black"/>
<path d="M4.68951 10.365L0.238305 2.64158C-0.438505 1.46736 0.406825 0.000303936 1.76046 0H10.6748L4.68951 10.365Z" fill="#00BC7D"/>
<path d="M25.3694 0C26.7233 -1.18547e-07 27.5698 1.46723 26.8929 2.64158L24.9839 5.95217C23.682 4.84938 21.999 4.18365 20.1604 4.18361C16.0326 4.184 12.6861 7.53543 12.6861 11.6698C12.6863 14.913 14.7458 17.6737 17.6262 18.7136L15.0879 23.1198C14.4108 24.2933 12.7193 24.2935 12.0423 23.1198L6.25439 13.0794L13.8069 0H25.3694Z" fill="url(#paint0_linear_59_130)"/>
<defs>
<linearGradient id="paint0_linear_59_130" x1="4.06986" y1="4.06968" x2="16.6927" y2="24" gradientUnits="userSpaceOnUse">
<stop stop-color="#00BC7D"/>
<stop offset="1" stop-color="#4F39F6"/>
</linearGradient>
</defs>
</svg>
