<svg width="36" height="32" viewBox="0 0 36 32" fill="none" xmlns="http://www.w3.org/2000/svg">
<path d="M33.6625 0C35.4589 -1.58057e-07 36.5822 1.9572 35.6839 3.52295L33.1508 7.93696C31.4234 6.4666 29.191 5.57807 26.7514 5.57801C21.2738 5.57812 16.8332 10.047 16.8332 15.5597C16.8332 19.8844 19.5663 23.5656 23.3887 24.9519L20.0204 30.8258C19.122 32.3913 16.8767 32.3915 15.9786 30.8258L0.316129 3.52295C-0.581938 1.95735 0.540288 0.000337526 2.33646 0H33.6625Z" fill="black"/>
<path d="M26.7514 9.10096C26.9739 9.10098 27.1945 9.11194 27.4112 9.13422C27.4467 9.13787 27.4818 9.14374 27.5171 9.14798C27.6523 9.16415 27.7858 9.18542 27.9182 9.2099C28.0032 9.22564 28.0875 9.24244 28.1712 9.26151C28.5548 9.34872 28.9258 9.46868 29.2799 9.6216C29.306 9.63289 29.3315 9.64553 29.3574 9.65715C29.6242 9.77661 29.8816 9.91305 30.1277 10.0666C30.1386 10.0734 30.1488 10.0815 30.1596 10.0883C31.967 11.2309 33.1702 13.2533 33.1702 15.5597C33.1702 19.1264 30.2964 22.0178 26.7525 22.0184C26.1457 22.0184 25.5587 21.9314 25.0023 21.773C24.9681 21.7633 24.9337 21.7546 24.8997 21.7444C24.8427 21.7271 24.7863 21.7081 24.7299 21.6893C24.6949 21.6776 24.6599 21.6661 24.6251 21.6538C24.5742 21.6358 24.5238 21.6168 24.4735 21.5976C24.4277 21.5801 24.3821 21.5622 24.3368 21.5437C24.2932 21.5258 24.25 21.5074 24.2069 21.4886C24.1633 21.4697 24.1201 21.4501 24.077 21.4301C24.0328 21.4097 23.9885 21.3896 23.9448 21.3682C23.7805 21.2877 23.62 21.2006 23.4639 21.1067C23.4119 21.0754 23.3612 21.042 23.3101 21.0093C23.279 20.9893 23.2474 20.9701 23.2167 20.9496C23.1793 20.9248 23.143 20.8984 23.1061 20.8728C23.0568 20.8384 23.0075 20.8041 22.9591 20.7684C22.9324 20.7487 22.9058 20.7289 22.8794 20.7088C22.8271 20.669 22.7754 20.6286 22.7244 20.5872C22.6981 20.5659 22.6717 20.5448 22.6458 20.523C22.5037 20.4039 22.3668 20.2789 22.2356 20.148L22.2139 20.1262C22.1945 20.1067 22.1761 20.0864 22.1569 20.0666C22.1123 20.0205 22.068 19.9741 22.0247 19.9267C22.0035 19.9034 21.983 19.8792 21.9621 19.8556C21.9349 19.8249 21.9067 19.7951 21.88 19.7639L21.8003 19.6675C21.7934 19.6591 21.7866 19.6507 21.7798 19.6423C21.7394 19.5926 21.7002 19.5419 21.6612 19.4909C21.6294 19.4492 21.5976 19.4073 21.5667 19.3648C21.5455 19.3356 21.5247 19.306 21.504 19.2765C21.4762 19.2368 21.4477 19.1975 21.4208 19.1572C21.3129 18.9956 21.2122 18.8287 21.1188 18.6572C21.1038 18.6296 21.0902 18.6013 21.0755 18.5735C21.044 18.5135 21.0129 18.4533 20.9832 18.3923C20.9691 18.3631 20.956 18.3334 20.9422 18.304C20.9158 18.2474 20.8896 18.1906 20.8647 18.1331C20.8487 18.0959 20.8334 18.0583 20.818 18.0207C20.7931 17.96 20.7693 17.8988 20.7462 17.8372C20.7366 17.8115 20.7259 17.7862 20.7166 17.7604C20.6136 17.4745 20.5306 17.1793 20.4682 16.8762C20.4638 16.8549 20.4598 16.8334 20.4557 16.812C20.4424 16.744 20.4303 16.6755 20.4192 16.6067C20.4122 16.5636 20.4048 16.5205 20.3987 16.4771C20.3563 16.1774 20.3337 15.8712 20.3337 15.5597C20.3337 15.4482 20.3373 15.3373 20.3428 15.2271C20.3706 14.6768 20.4658 14.1444 20.622 13.6388C20.7783 13.1333 20.9956 12.6549 21.2636 12.2111C21.4779 11.8559 21.7246 11.5227 22.0008 11.2168C22.2769 10.911 22.582 10.6321 22.9113 10.3842C22.9937 10.3222 23.0777 10.2622 23.1631 10.2042C23.334 10.088 23.5109 9.98029 23.693 9.88078C23.7838 9.83115 23.8754 9.78271 23.9687 9.73743C24.2493 9.60137 24.5413 9.48546 24.8427 9.3911C25.4456 9.2023 26.0868 9.10102 26.7514 9.10096Z" fill="black"/>
</svg>
