<svg width="130" height="22" viewBox="0 0 130 22" fill="none" xmlns="http://www.w3.org/2000/svg">
<ellipse cx="13.7132" cy="13.7144" rx="4.89092" ry="4.89112" fill="black"/>
<path d="M21.2129 0V5.49902H6.28516C5.49773 5.49902 4.92535 6.25276 5.10449 7.01953C5.61602 9.20827 6.28516 12.9192 6.28516 17.2852V21C6.28491 21.5521 5.83729 22 5.28516 22H0V0H21.2129ZM21.2119 5.74512C21.2119 6.40946 20.5776 6.89157 19.9316 6.73633C17.7805 6.21904 13.9566 5.50004 9.42773 5.5H21.2119V5.74512Z" fill="black"/>
<path d="M25.5601 20.5926V1.79066H36.7652L36.304 4.965H30.0096V9.95714H35.4901V13.1315H30.0096V20.5926H25.5601Z" fill="black"/>
<path d="M49.8743 20.5926H46.1573L45.9674 18.7748C44.9183 20.2941 43.4623 21.0538 41.5993 21.0538C40.2789 21.0538 39.275 20.6559 38.5877 19.86C37.9185 19.0642 37.5838 17.9518 37.5838 16.5229V6.18591H41.8706V15.9803C41.8706 16.6857 41.9791 17.1831 42.1961 17.4725C42.4313 17.7438 42.784 17.8794 43.2543 17.8794C44.1586 17.8794 44.9364 17.3187 45.5875 16.1973V6.18591H49.8743V20.5926Z" fill="black"/>
<path d="M62.2804 19.9143C61.7559 20.276 61.1409 20.5564 60.4355 20.7553C59.7482 20.9543 59.0609 21.0538 58.3735 21.0538C55.2263 21.0357 53.6527 19.2993 53.6527 15.8446V9.17033H51.6179V6.18591H53.6527V3.06582L57.9394 2.57746V6.18591H61.2495L60.7882 9.17033H57.9394V15.7903C57.9394 16.4596 58.048 16.9389 58.265 17.2283C58.4821 17.5177 58.8257 17.6624 59.296 17.6624C59.7844 17.6624 60.2999 17.5086 60.8425 17.2012L62.2804 19.9143Z" fill="black"/>
<path d="M68.7849 5.72468C69.8159 5.72468 70.7836 5.87842 71.688 6.18591C72.5923 6.49339 73.3882 6.92749 74.0755 7.4882L72.5019 9.90288C71.3262 9.16129 70.1415 8.7905 68.9477 8.7905C68.387 8.7905 67.9529 8.88998 67.6454 9.08894C67.356 9.26982 67.2113 9.53208 67.2113 9.87575C67.2113 10.1471 67.2746 10.3732 67.4012 10.554C67.5459 10.7168 67.8263 10.8886 68.2423 11.0695C68.6583 11.2504 69.3004 11.4674 70.1686 11.7207C71.6699 12.1548 72.7823 12.7245 73.5058 13.4299C74.2474 14.1173 74.6181 15.0759 74.6181 16.3058C74.6181 17.2826 74.3378 18.1327 73.7771 18.8562C73.2164 19.5616 72.4476 20.1042 71.4709 20.484C70.4942 20.8639 69.409 21.0538 68.2152 21.0538C67.0033 21.0538 65.8729 20.8639 64.8238 20.484C63.7928 20.1042 62.9156 19.5797 62.1921 18.9104L64.2812 16.5771C65.493 17.5177 66.7682 17.988 68.1067 17.988C68.7578 17.988 69.2643 17.8704 69.626 17.6353C70.0058 17.4001 70.1958 17.0655 70.1958 16.6314C70.1958 16.2877 70.1234 16.0164 69.9787 15.8175C69.834 15.6185 69.5536 15.4376 69.1376 15.2748C68.7216 15.094 68.0614 14.8769 67.1571 14.6237C65.7282 14.2077 64.661 13.6289 63.9556 12.8873C63.2502 12.1457 62.8975 11.2233 62.8975 10.1199C62.8975 9.2879 63.1326 8.54632 63.6029 7.89517C64.0912 7.22594 64.7786 6.7014 65.6648 6.32156C66.5692 5.92364 67.6092 5.72468 68.7849 5.72468Z" fill="black"/>
<path d="M88.011 16.4144C88.011 16.957 88.0833 17.3549 88.228 17.6081C88.3908 17.8614 88.6441 18.0513 88.9877 18.1779L88.0924 20.9724C87.2061 20.9 86.4826 20.7101 85.9219 20.4026C85.3612 20.0771 84.9271 19.5706 84.6196 18.8833C83.679 20.3303 82.232 21.0538 80.2786 21.0538C78.8497 21.0538 77.7102 20.6378 76.8601 19.8058C76.01 18.9737 75.5849 17.8885 75.5849 16.55C75.5849 14.9764 76.1637 13.7736 77.3213 12.9416C78.4789 12.1095 80.152 11.6935 82.3406 11.6935H83.8057V11.0695C83.8057 10.2194 83.6248 9.64061 83.263 9.33312C82.9013 9.00755 82.2682 8.84476 81.3638 8.84476C80.8936 8.84476 80.3238 8.91711 79.6546 9.06181C78.9854 9.18842 78.298 9.3693 77.5926 9.60443L76.6159 6.78279C77.5203 6.43913 78.4427 6.17686 79.3833 5.99599C80.3419 5.81511 81.2282 5.72468 82.0421 5.72468C84.1041 5.72468 85.6144 6.14973 86.573 6.99984C87.5317 7.84995 88.011 9.12512 88.011 10.8253V16.4144ZM81.5266 17.988C82.5034 17.988 83.263 17.5267 83.8057 16.6043V14.0539H82.7475C81.7708 14.0539 81.0383 14.2258 80.5499 14.5694C80.0796 14.9131 79.8445 15.4467 79.8445 16.1702C79.8445 16.749 79.9892 17.2012 80.2786 17.5267C80.5861 17.8342 81.0021 17.988 81.5266 17.988Z" fill="black"/>
<path d="M94.986 21.0538C93.738 21.0538 92.7613 20.7011 92.0559 19.9957C91.3685 19.2722 91.0249 18.2502 91.0249 16.9298V0.46123L95.3116 0V16.7671C95.3116 17.3639 95.5558 17.6624 96.0442 17.6624C96.2974 17.6624 96.5325 17.6172 96.7496 17.5267L97.5906 20.5654C96.8129 20.891 95.9447 21.0538 94.986 21.0538Z" fill="black"/>
<path d="M107.436 1.32943C109.86 1.32943 111.949 2.09814 113.703 3.63558L111.451 5.99599C110.782 5.48954 110.158 5.12779 109.579 4.91074C109.019 4.67561 108.367 4.55804 107.626 4.55804C106.233 4.55804 105.121 5.1097 104.289 6.21304C103.457 7.29829 103.041 8.95329 103.041 11.178C103.041 13.5837 103.357 15.2929 103.99 16.3058C104.623 17.3006 105.609 17.798 106.948 17.798C107.888 17.798 108.738 17.59 109.498 17.174V12.9144H107.056L106.622 9.76722H113.812V19.0732C112.835 19.7063 111.759 20.1946 110.583 20.5383C109.407 20.882 108.232 21.0538 107.056 21.0538C104.198 21.0538 102.046 20.2218 100.599 18.5577C99.1518 16.8756 98.4283 14.4157 98.4283 11.178C98.4283 9.11607 98.8172 7.3435 99.595 5.86033C100.391 4.37716 101.467 3.25574 102.824 2.49607C104.198 1.71831 105.736 1.32943 107.436 1.32943Z" fill="black"/>
<path d="M122.942 5.72468C125.149 5.72468 126.876 6.40296 128.124 7.75951C129.372 9.09799 129.996 10.9791 129.996 13.4028C129.996 14.9402 129.707 16.2877 129.128 17.4453C128.567 18.5849 127.753 19.4711 126.686 20.1042C125.637 20.7373 124.389 21.0538 122.942 21.0538C120.754 21.0538 119.026 20.3846 117.76 19.0461C116.512 17.6895 115.888 15.7994 115.888 13.3757C115.888 11.8382 116.168 10.4998 116.729 9.36025C117.308 8.20266 118.122 7.30733 119.171 6.67427C120.238 6.04121 121.495 5.72468 122.942 5.72468ZM122.942 8.87189C122.074 8.87189 121.423 9.24269 120.989 9.98427C120.555 10.7078 120.338 11.8382 120.338 13.3757C120.338 14.9493 120.546 16.0978 120.962 16.8213C121.396 17.5448 122.056 17.9066 122.942 17.9066C123.81 17.9066 124.462 17.5448 124.896 16.8213C125.33 16.0797 125.547 14.9402 125.547 13.4028C125.547 11.8292 125.33 10.6806 124.896 9.95714C124.48 9.23364 123.828 8.87189 122.942 8.87189Z" fill="black"/>
</svg>
