<svg width="128" height="22" viewBox="0 0 128 22" fill="none" xmlns="http://www.w3.org/2000/svg">
<path d="M36.7942 2.29066L35.8989 5.465H29.6859L28.9804 10.4571H34.4067L33.9726 13.6315H28.5463L27.4882 21.0926H23.1201L25.7518 2.29066H36.7942Z" fill="black"/>
<path d="M38.8666 21.5538C37.7271 21.5538 36.8589 21.2373 36.262 20.6042C35.6651 19.9711 35.3666 19.0939 35.3666 17.9725C35.3666 17.6469 35.3938 17.3123 35.448 16.9686L36.9131 6.68591H41.1184L39.789 16.2903C39.7528 16.6521 39.7348 16.8782 39.7348 16.9686C39.7348 17.4027 39.8162 17.7102 39.9789 17.8911C40.1598 18.072 40.413 18.1624 40.7386 18.1624C41.5887 18.1624 42.5112 17.4027 43.506 15.8834L44.7811 6.68591H48.9865L46.9788 21.0926H43.3432L43.4246 18.9492C42.0861 20.6856 40.5668 21.5538 38.8666 21.5538Z" fill="black"/>
<path d="M55.5121 16.3175C55.476 16.643 55.4579 16.8601 55.4579 16.9686C55.4579 17.3846 55.5393 17.6921 55.7021 17.8911C55.8829 18.072 56.1452 18.1624 56.4889 18.1624C56.7421 18.1624 56.9863 18.1262 57.2214 18.0539C57.4746 17.9815 57.7731 17.8639 58.1167 17.7012L59.2291 20.4957C58.6503 20.8393 58.0082 21.1016 57.3028 21.2825C56.5974 21.4634 55.9282 21.5538 55.2951 21.5538C53.9747 21.5538 52.9618 21.2011 52.2564 20.4957C51.551 19.7903 51.1983 18.7774 51.1983 17.457C51.1983 17.0952 51.2254 16.7154 51.2797 16.3175L52.2293 9.67034H50.2487L50.6557 6.68591H52.8262L53.7215 3.48443L57.3571 3.07746L56.8416 6.68591H60.1516L59.2562 9.67034H56.4346L55.5121 16.3175Z" fill="black"/>
<path d="M67.1508 6.22468C69.2127 6.22468 70.9763 6.83965 72.4413 8.0696L70.5693 10.3757C70.0448 10.014 69.484 9.74269 68.8872 9.56181C68.3084 9.36285 67.7386 9.26337 67.1779 9.26337C66.5629 9.26337 66.0836 9.37189 65.7399 9.58894C65.4144 9.80599 65.2516 10.0954 65.2516 10.4571C65.2516 10.7104 65.3239 10.9184 65.4686 11.0812C65.6314 11.2439 65.8937 11.4067 66.2554 11.5695C66.6353 11.7142 67.2322 11.9132 68.0461 12.1664C69.2941 12.5643 70.2256 13.116 70.8406 13.8214C71.4737 14.5268 71.7902 15.4312 71.7902 16.5345C71.7902 17.457 71.5551 18.298 71.0848 19.0577C70.6145 19.8174 69.891 20.4233 68.9143 20.8755C67.9376 21.3277 66.7438 21.5538 65.333 21.5538C64.0849 21.5538 62.9364 21.3367 61.8873 20.9026C60.8383 20.4685 59.9881 19.8988 59.337 19.1934L61.4804 16.9686C62.6199 17.9815 63.9131 18.488 65.3601 18.488C66.0836 18.488 66.6353 18.3523 67.0151 18.081C67.3949 17.8097 67.5849 17.466 67.5849 17.05C67.5849 16.7244 67.5035 16.4712 67.3407 16.2903C67.196 16.0914 66.9337 15.9105 66.5539 15.7477C66.174 15.5668 65.5681 15.3317 64.7361 15.0423C63.47 14.6082 62.5385 14.0656 61.9416 13.4144C61.3628 12.7633 61.0734 11.9132 61.0734 10.8641C61.0734 10.014 61.3085 9.24528 61.7788 8.55796C62.2491 7.85255 62.9454 7.29184 63.8679 6.87582C64.7904 6.44173 65.8846 6.22468 67.1508 6.22468Z" fill="black"/>
<path d="M81.6023 6.22468C83.6824 6.22468 85.6449 6.73113 87.4898 7.74402L86.1604 16.9686C86.1242 17.2942 86.1061 17.5022 86.1061 17.5926C86.1061 17.882 86.1604 18.1172 86.2689 18.298C86.3774 18.4608 86.5764 18.5965 86.8658 18.705L85.6449 21.4724C84.8129 21.4 84.0984 21.174 83.5015 20.7941C82.9046 20.3962 82.5067 19.8264 82.3077 19.0849C81.1502 20.7308 79.7212 21.5538 78.021 21.5538C76.5198 21.5538 75.3622 21.0473 74.5482 20.0344C73.7524 19.0035 73.3545 17.6017 73.3545 15.8291C73.3545 14.3098 73.6348 12.8176 74.1955 11.3525C74.7562 9.88738 75.6516 8.66648 76.8815 7.68976C78.1296 6.71304 79.7032 6.22468 81.6023 6.22468ZM81.4938 9.26337C80.6256 9.26337 79.9021 9.59799 79.3233 10.2672C78.7626 10.9365 78.3556 11.7685 78.1024 12.7633C77.8492 13.7581 77.7226 14.771 77.7226 15.802C77.7226 16.7606 77.8582 17.4389 78.1295 17.8368C78.4189 18.2167 78.8259 18.4066 79.3505 18.4066C80.3091 18.4066 81.2225 17.7373 82.0907 16.3989L83.0945 9.53468C82.57 9.35381 82.0364 9.26337 81.4938 9.26337Z" fill="black"/>
<path d="M93.4116 17.2128C93.3754 17.5565 93.4025 17.8006 93.493 17.9453C93.5834 18.09 93.7462 18.1624 93.9813 18.1624C94.1803 18.1624 94.4154 18.1172 94.6867 18.0267L95.2022 21.0112C94.3883 21.3729 93.4839 21.5538 92.4891 21.5538C91.422 21.5538 90.5899 21.2825 89.9931 20.7399C89.4143 20.1791 89.1249 19.3652 89.1249 18.298C89.1249 17.9906 89.152 17.665 89.2063 17.3213L91.5124 0.96123L95.7449 0.5L93.4116 17.2128Z" fill="black"/>
<path d="M107.305 1.82943C109.765 1.82943 111.746 2.62528 113.247 4.21697L110.805 6.4146C110.19 5.92623 109.62 5.58257 109.096 5.38361C108.571 5.16656 107.956 5.05804 107.251 5.05804C105.858 5.05804 104.737 5.53735 103.887 6.49599C103.036 7.43654 102.43 8.62126 102.069 10.0502C101.707 11.461 101.526 12.9261 101.526 14.4454C101.526 15.8201 101.779 16.8058 102.286 17.4027C102.792 17.9996 103.561 18.298 104.592 18.298C105.478 18.298 106.355 18.09 107.224 17.674L107.821 13.4144H105.433L105.46 10.2672H112.514L111.239 19.5732C110.226 20.2063 109.114 20.6946 107.902 21.0383C106.708 21.382 105.514 21.5538 104.321 21.5538C101.915 21.5538 100.097 20.9207 98.8673 19.6546C97.6373 18.3704 97.0224 16.5074 97.0224 14.0656C97.0224 12.0398 97.3751 10.0954 98.0805 8.23238C98.804 6.36938 99.9344 4.84099 101.472 3.64722C103.027 2.43536 104.972 1.82943 107.305 1.82943Z" fill="black"/>
<path d="M119.97 21.5538C118.07 21.5538 116.587 21.0112 115.52 19.9259C114.471 18.8407 113.946 17.3394 113.946 15.4221C113.946 13.939 114.209 12.501 114.733 11.1083C115.258 9.69747 116.117 8.53083 117.311 7.60837C118.523 6.68591 120.078 6.22468 121.977 6.22468C123.858 6.22468 125.332 6.7673 126.4 7.85255C127.467 8.93779 128 10.4119 128 12.2749C128 13.7581 127.738 15.2051 127.214 16.6159C126.689 18.0267 125.821 19.2024 124.609 20.143C123.415 21.0835 121.869 21.5538 119.97 21.5538ZM120.268 18.4066C121.516 18.4066 122.393 17.7464 122.9 16.426C123.406 15.0875 123.668 13.6405 123.687 12.085C123.687 11.1445 123.515 10.4571 123.171 10.023C122.845 9.58894 122.348 9.37189 121.679 9.37189C120.431 9.37189 119.545 10.0411 119.02 11.3796C118.514 12.7181 118.26 14.156 118.26 15.6935C118.26 16.634 118.423 17.3213 118.749 17.7554C119.074 18.1895 119.581 18.4066 120.268 18.4066Z" fill="black"/>
<ellipse cx="13.7132" cy="13.7144" rx="4.89092" ry="4.89112" fill="black"/>
<path d="M21.2129 0V5.49902H6.28516C5.49773 5.49902 4.92535 6.25276 5.10449 7.01953C5.61602 9.20827 6.28516 12.9192 6.28516 17.2852V21C6.28491 21.5521 5.83729 22 5.28516 22H0V0H21.2129ZM21.2119 5.74512C21.2119 6.40946 20.5776 6.89157 19.9316 6.73633C17.7805 6.21904 13.9566 5.50004 9.42773 5.5H21.2119V5.74512Z" fill="black"/>
</svg>
