<svg width="398" height="411" viewBox="0 0 398 411" fill="none" xmlns="http://www.w3.org/2000/svg">
<path d="M346.961 411C345.336 346.696 291.654 294 227 294L164 294C99.3458 294 45.6637 346.696 44.0391 411L0 411L-3.59308e-05 3.47943e-05L133.071 2.31608e-05C134.637 33.4009 162.212 60 196 60C229.788 60 257.363 33.4009 258.929 1.2158e-05L398 0L398 411L346.961 411Z" fill="#EFEFEF"/>
<path d="M196 54C165.526 54 140.638 30.0857 139.078 2.26357e-05L252.922 1.26831e-05C251.362 30.0857 226.474 54 196 54Z" fill="#EFEFEF"/>
<path d="M50.041 411C51.6657 350.008 102.66 300 164 300L227 300C288.34 300 339.334 350.008 340.959 411L50.041 411Z" fill="#EFEFEF"/>
</svg>
