<svg width="296" height="306" viewBox="0 0 296 306" fill="none" xmlns="http://www.w3.org/2000/svg">
<path d="M258.041 306C256.833 258.124 216.909 218.891 168.824 218.891L121.97 218.891C73.8854 218.891 33.9609 258.124 32.7527 306L3.50475e-05 306L8.29616e-06 -4.0851e-07L98.9676 -9.06053e-06C100.132 24.8678 120.64 44.6715 145.769 44.6715C170.898 44.6715 191.406 24.8678 192.57 -1.72435e-05L296 -2.62856e-05L296 306L258.041 306Z" fill="#F4F4F4"/>
<path d="M145.769 40.2044C123.105 40.2044 104.595 22.3996 103.435 -9.45108e-06L188.103 -1.6853e-05C186.942 22.3995 168.433 40.2044 145.769 40.2044Z" fill="#F4F4F4"/>
<path d="M37.2165 306C38.4248 260.59 76.3499 223.358 121.97 223.358L168.824 223.358C214.444 223.358 252.369 260.59 253.578 306L37.2165 306Z" fill="#F4F4F4"/>
</svg>
