<svg width="392" height="405" viewBox="0 0 392 405" fill="none" xmlns="http://www.w3.org/2000/svg">
<path d="M136.297 0C139.307 30.3199 164.888 54 196 54C227.112 54 252.693 30.3199 255.703 0H392V405H345.851C342.725 342.066 290.71 292 227 292H165C101.29 292 49.2746 342.066 46.1494 405H0V0H136.297ZM227 298C287.395 298 336.723 345.381 339.842 405H52.1582C55.2772 345.381 104.605 298 165 298H227ZM249.669 0C246.684 26.9996 223.795 48 196 48C168.205 48 145.316 26.9996 142.331 0H249.669Z" fill="#E5E5E5"/>
</svg>
